<?xml version="1.0" standalone="no"?>
<!DOCTYPE svg PUBLIC "-//W3C//DTD SVG 20010904//EN"
 "http://www.w3.org/TR/2001/REC-SVG-20010904/DTD/svg10.dtd">
<svg version="1.0" xmlns="http://www.w3.org/2000/svg"
 width="700.000000pt" height="700.000000pt" viewBox="0 0 700.000000 700.000000"
 preserveAspectRatio="xMidYMid meet">
<metadata>
Created by potrace 1.14, written by Peter Selinger 2001-2017
</metadata>
<g transform="translate(0.000000,700.000000) scale(0.100000,-0.100000)"
fill="#000000" stroke="none">
<path d="M2402 6844 c-97 -21 -100 -25 -46 -64 74 -53 195 -180 265 -279 243
-344 417 -832 538 -1508 17 -93 33 -188 36 -213 3 -25 8 -56 10 -70 6 -36 12
-83 25 -185 6 -49 13 -103 15 -120 4 -33 12 -112 20 -192 3 -29 7 -74 10 -100
2 -27 7 -77 10 -113 3 -36 8 -78 10 -95 23 -176 23 -499 1 -610 -2 -11 -9 -55
-16 -97 -7 -43 -16 -78 -19 -78 -3 0 -6 21 -7 48 0 41 -8 212 -19 432 -4 69
-13 202 -20 285 -2 28 -7 86 -10 130 -12 175 -24 321 -40 460 -2 22 -7 67 -10
100 -9 86 -15 135 -20 175 -5 36 -11 82 -21 160 -5 47 -11 87 -19 130 -2 14
-7 43 -10 65 -51 372 -183 750 -371 1062 -170 283 -422 527 -624 606 -188 74
-381 47 -570 -78 -88 -59 -221 -194 -261 -266 -8 -16 -5 -16 39 -2 289 91 592
-130 912 -667 314 -525 656 -1410 905 -2340 54 -201 65 -244 62 -246 -2 -2
-16 37 -31 88 -126 412 -375 1109 -534 1498 -170 415 -347 766 -469 931 -154
208 -327 288 -546 255 -81 -12 -227 -78 -327 -146 -91 -63 -270 -223 -260
-233 3 -3 37 2 75 10 175 37 396 -28 584 -172 25 -19 58 -44 72 -55 71 -54
242 -230 326 -335 68 -85 119 -151 133 -172 8 -11 45 -63 81 -115 63 -88 269
-412 269 -422 0 -3 14 -29 32 -58 72 -120 286 -538 353 -688 16 -36 45 -101
65 -145 63 -138 100 -268 115 -415 4 -36 9 -72 10 -81 6 -33 9 -218 3 -224 -3
-3 -15 22 -26 57 -54 171 -207 573 -308 810 -30 70 -54 129 -54 131 0 3 -20
47 -44 98 -24 52 -69 150 -101 218 -73 155 -170 344 -246 480 -33 57 -59 105
-59 106 0 6 -163 261 -193 303 -149 204 -274 341 -391 430 -137 103 -234 133
-420 128 -138 -4 -156 -7 -247 -42 -90 -34 -149 -73 -223 -148 -100 -103 -182
-288 -199 -449 -6 -53 4 -60 30 -20 27 41 130 112 188 128 243 71 551 -87 959
-491 12 -11 53 -54 91 -96 335 -357 700 -847 1052 -1413 51 -82 98 -157 103
-165 5 -8 23 -40 41 -70 18 -30 39 -66 47 -80 45 -72 -44 47 -153 206 -78 113
-686 936 -705 954 -3 3 -68 86 -145 185 -77 99 -142 182 -145 185 -3 3 -28 32
-54 65 -152 189 -335 375 -433 442 -145 98 -302 149 -427 138 -193 -18 -374
-123 -442 -258 -42 -82 -78 -191 -90 -272 l-6 -39 28 34 c252 303 699 155
1327 -440 78 -74 259 -257 312 -315 15 -16 43 -48 63 -70 31 -33 108 -121 193
-220 115 -133 350 -435 493 -633 l67 -94 -118 119 c-451 451 -975 745 -1461
818 -85 12 -342 14 -392 1 -13 -3 -42 -8 -64 -12 -64 -9 -208 -60 -281 -99
-213 -113 -389 -294 -485 -500 -51 -112 -48 -116 29 -37 149 152 335 270 520
332 52 18 101 33 110 35 9 2 36 8 61 14 142 32 413 35 585 6 381 -65 803 -244
1179 -502 135 -92 195 -149 250 -233 41 -62 86 -157 86 -179 0 -6 -30 19 -67
56 -131 127 -368 309 -513 391 -19 11 -67 38 -106 60 -187 107 -488 223 -669
258 -11 2 -42 8 -70 14 -127 25 -194 31 -357 34 -293 5 -552 -60 -736 -186
-179 -122 -304 -309 -342 -513 l-8 -40 27 35 c68 89 223 222 331 283 42 24
125 50 195 60 17 3 46 8 65 11 19 3 49 8 65 11 77 14 185 20 350 20 240 0 362
-12 600 -59 248 -49 587 -170 835 -298 227 -117 334 -197 354 -265 10 -33 -9
-36 -70 -13 -31 11 -58 19 -61 17 -2 -2 31 -35 73 -73 94 -84 107 -98 144
-151 58 -84 171 -152 275 -167 22 -3 42 -6 45 -6 21 -6 -62 -18 -101 -15 -62
4 -116 41 -272 185 -163 152 -475 348 -659 416 -116 42 -154 55 -173 59 -11 2
-48 11 -81 19 -124 30 -334 41 -464 23 -173 -24 -363 -106 -517 -223 -73 -56
-179 -163 -210 -212 -10 -15 -20 -29 -23 -32 -10 -9 -41 -60 -36 -60 3 0 31
18 64 39 69 46 234 131 254 131 8 0 18 4 24 9 8 9 155 55 208 65 100 21 133
26 202 32 307 27 654 -29 979 -158 216 -86 395 -190 455 -264 41 -51 141 -106
246 -135 l69 -19 -60 6 c-75 8 -150 36 -217 80 -29 20 -69 37 -92 40 -23 3
-52 7 -66 9 -24 4 -24 3 -6 -10 11 -8 23 -15 28 -15 11 0 102 -56 163 -100 93
-68 220 -122 260 -111 6 1 4 -3 -2 -10 -7 -7 -40 -15 -73 -17 -73 -5 -139 16
-278 91 -51 27 -95 47 -98 44 -11 -11 110 -113 235 -196 40 -27 59 -46 52 -51
-19 -11 -109 7 -140 29 -16 12 -32 21 -36 21 -4 0 -25 14 -46 31 -21 17 -46
29 -54 27 -11 -2 3 -24 48 -73 78 -85 126 -120 194 -140 58 -17 68 -33 82
-135 8 -61 7 -351 -3 -395 -2 -11 -7 -47 -10 -80 -9 -78 -56 -356 -62 -366 -9
-15 55 -48 122 -62 84 -18 353 -16 432 2 29 7 64 23 78 34 l25 22 -16 75 c-70
334 -89 774 -37 864 12 21 31 33 67 43 70 21 164 97 226 184 24 35 6 40 -32
10 -14 -10 -51 -35 -84 -55 -50 -30 -69 -36 -115 -36 -46 1 -52 3 -38 13 9 7
56 40 105 75 91 64 224 180 188 164 -11 -5 -76 -36 -145 -70 -131 -65 -187
-79 -264 -68 -45 7 -65 26 -26 26 43 0 153 52 251 118 57 38 123 79 147 91 45
23 53 32 25 27 -10 -2 -40 -7 -68 -11 -27 -3 -59 -15 -70 -25 -46 -42 -157
-87 -235 -96 -42 -4 -40 -3 25 19 110 37 176 75 235 137 180 186 705 385 1101
416 407 32 730 -48 1053 -261 l29 -19 -13 24 c-47 90 -193 242 -308 321 -76
53 -202 116 -287 143 -234 76 -524 69 -791 -20 -262 -87 -559 -263 -762 -451
-108 -100 -216 -180 -251 -188 -32 -7 -122 2 -133 13 -4 4 5 7 20 6 36 -2 116
22 172 52 57 29 96 65 147 134 22 30 79 89 126 130 47 41 85 76 83 77 -1 2
-29 -6 -62 -17 -73 -24 -74 -24 -74 0 0 65 107 149 350 277 295 154 697 286
1005 329 28 3 59 8 70 10 130 25 583 25 710 0 11 -2 42 -7 68 -10 159 -23 215
-43 317 -111 104 -69 208 -160 255 -224 17 -22 33 -41 37 -41 13 0 -25 137
-59 210 -127 278 -431 469 -805 508 -158 16 -394 6 -563 -24 -132 -23 -382
-100 -502 -155 -34 -16 -78 -35 -97 -43 -147 -61 -482 -275 -620 -396 -93 -81
-135 -120 -173 -160 l-43 -45 14 47 c52 174 193 313 507 499 217 129 555 281
696 314 10 2 52 13 93 25 93 25 212 48 299 58 100 11 369 7 431 -7 30 -6 71
-14 90 -17 103 -17 301 -100 422 -178 55 -35 161 -116 184 -140 5 -6 38 -38
72 -71 l63 -60 -16 40 c-130 323 -436 591 -756 661 -145 32 -349 41 -475 23
-32 -5 -75 -12 -94 -14 -19 -3 -62 -13 -95 -21 -33 -9 -71 -18 -84 -21 -42 -7
-263 -94 -346 -136 -214 -106 -518 -305 -631 -412 -12 -11 -45 -40 -75 -65
-29 -25 -105 -97 -168 -159 l-114 -115 54 75 c97 134 372 493 389 509 3 3 39
46 80 95 41 50 108 128 150 175 41 47 88 101 105 120 44 50 402 409 455 455
335 294 585 445 810 489 166 33 319 -20 414 -141 l36 -47 -6 35 c-30 162 -94
309 -168 387 -51 55 -199 130 -291 148 -84 16 -216 8 -292 -19 -192 -68 -367
-213 -605 -502 -95 -116 -256 -319 -294 -370 -16 -22 -32 -42 -35 -45 -23 -19
-715 -955 -854 -1155 -112 -161 -70 -84 119 220 402 647 802 1173 1170 1540
222 222 406 361 575 435 78 35 215 70 251 65 8 -1 39 -5 69 -9 72 -9 159 -57
221 -122 48 -50 50 -52 50 -26 -1 23 -14 97 -34 182 -3 14 -10 34 -15 45 -5
11 -15 35 -22 53 -35 95 -136 218 -229 281 -122 83 -237 112 -415 106 -142 -4
-158 -7 -241 -45 -225 -102 -478 -396 -757 -880 -75 -131 -327 -626 -327 -643
0 -3 -15 -38 -34 -79 -120 -258 -426 -1041 -426 -1091 0 -6 -5 -19 -11 -27
-11 -15 -6 222 6 300 26 169 31 192 55 267 41 126 229 528 373 798 419 781
849 1301 1212 1466 108 49 195 67 303 64 58 -1 115 -9 142 -18 l45 -16 -90 88
c-259 253 -518 357 -745 297 -216 -57 -409 -309 -644 -841 -27 -60 -60 -134
-73 -164 -13 -30 -53 -127 -89 -215 -36 -89 -69 -170 -74 -181 -62 -138 -440
-1229 -440 -1271 0 -7 -5 -16 -10 -19 -14 -9 -12 -1 75 310 209 741 453 1402
704 1902 374 747 737 1075 1074 970 26 -8 47 -13 47 -10 0 13 -68 101 -123
157 -203 208 -453 288 -675 215 -281 -92 -612 -460 -802 -889 -23 -52 -48
-108 -55 -125 -40 -90 -124 -370 -140 -466 -3 -19 -12 -68 -20 -109 -8 -41
-17 -92 -20 -112 -6 -48 -12 -85 -25 -178 -6 -41 -13 -95 -15 -120 -3 -25 -7
-61 -10 -80 -3 -19 -8 -57 -10 -85 -3 -27 -8 -66 -10 -85 -2 -19 -7 -66 -10
-105 -3 -38 -8 -86 -10 -105 -2 -19 -7 -71 -11 -115 -4 -44 -8 -93 -10 -110
-1 -16 -5 -75 -9 -130 -4 -55 -8 -116 -10 -135 -2 -19 -6 -91 -10 -160 -4 -69
-8 -145 -10 -170 -2 -25 -6 -124 -10 -220 -4 -96 -8 -176 -10 -178 -4 -5 -36
169 -43 237 -9 90 -8 420 1 506 11 99 15 131 22 205 6 67 12 126 20 195 2 22
7 72 10 111 3 39 8 82 10 95 3 13 7 47 10 74 3 28 7 61 10 75 2 14 7 45 10 70
22 166 71 448 100 570 2 8 9 38 15 65 6 28 13 57 15 65 19 87 30 130 56 220
120 413 256 709 432 940 54 71 178 198 242 247 l40 31 -55 17 c-87 26 -214 30
-306 11 -271 -59 -472 -271 -589 -621 -42 -128 -107 -412 -120 -530 -4 -33 -9
-62 -10 -65 -2 -3 -6 -33 -10 -65 -4 -33 -8 -71 -11 -85 -2 -14 -6 -56 -10
-95 -3 -38 -8 -77 -9 -86 -12 -60 -20 -338 -20 -649 0 -341 3 -416 22 -705 17
-249 1 -500 -42 -675 -7 -30 -16 -72 -20 -94 -7 -44 -21 -38 -29 14 -3 19 -8
44 -10 55 -62 279 -70 436 -41 825 23 300 23 890 1 1140 -2 19 -7 73 -11 120
-3 47 -8 96 -10 110 -2 14 -6 48 -9 75 -4 28 -8 61 -11 75 -2 14 -6 45 -10 70
-13 87 -16 106 -31 185 -81 415 -177 645 -341 809 -90 91 -162 135 -283 176
-82 27 -238 34 -328 14z m1429 -3661 c-12 -20 -14 -14 -5 12 4 9 9 14 11 11 3
-2 0 -13 -6 -23z"/>
</g>
</svg>
