<svg width="197" height="66" viewBox="0 0 197 66" fill="none" xmlns="http://www.w3.org/2000/svg">
<mask id="path-1-outside-1_13_28" maskUnits="userSpaceOnUse" x="19.9521" y="9.77344" width="177" height="15" fill="black">
<rect fill="white" x="19.9521" y="9.77344" width="177" height="15"/>
<path d="M111.238 13.3752C111.416 13.7523 111.504 14.264 111.504 14.9105H113.468C113.468 14.4364 113.428 14.0055 113.346 13.6176C113.264 13.2298 113.117 12.8823 112.906 12.5753C112.701 12.2683 112.422 12.0016 112.067 11.7754C111.719 11.5491 111.279 11.3633 110.747 11.2178C110.215 11.067 109.581 10.9566 108.844 10.8866C108.108 10.8111 107.248 10.7734 106.266 10.7734H101.007C99.8071 10.7734 98.7942 10.8327 97.969 10.9512C97.1505 11.0643 96.4753 11.2394 95.9433 11.4764C95.4113 11.708 94.9986 12.0016 94.7054 12.3571C94.4189 12.7127 94.2075 13.1301 94.0711 13.6096C93.9415 14.089 93.8664 14.6303 93.846 15.2337C93.8255 15.837 93.8153 16.5049 93.8153 17.2375C93.8153 17.9701 93.8255 18.6381 93.846 19.2414C93.8664 19.8447 93.9415 20.3861 94.0711 20.8655C94.2075 21.3449 94.4189 21.7624 94.7054 22.1179C94.9986 22.4734 95.4113 22.7697 95.9433 23.0067C96.4753 23.2384 97.1505 23.4107 97.969 23.5239C98.7942 23.6424 99.8071 23.7016 101.007 23.7016H106.276C107.258 23.7016 108.118 23.6639 108.854 23.5885C109.591 23.5185 110.225 23.408 110.757 23.2572C111.289 23.101 111.729 22.9044 112.077 22.6674C112.425 22.4303 112.701 22.1502 112.906 21.827C113.117 21.4984 113.264 21.1268 113.346 20.712C113.428 20.2918 113.468 19.8232 113.468 19.306V17.2375H103.627V18.5303H111.504V19.306C111.504 19.737 111.48 20.114 111.433 20.4373C111.385 20.7551 111.293 21.0298 111.156 21.2614C111.027 21.4877 110.843 21.6762 110.604 21.827C110.365 21.9779 110.051 22.0964 109.663 22.1826C109.274 22.2687 108.803 22.328 108.251 22.3603C107.698 22.3926 107.04 22.4088 106.276 22.4088H101.007C100.134 22.4088 99.3979 22.3899 98.7976 22.3522C98.2043 22.3091 97.7132 22.2256 97.3244 22.1018C96.9357 21.9779 96.6356 21.8001 96.4241 21.5685C96.2195 21.3368 96.0695 21.0298 95.974 20.6473C95.8785 20.2649 95.8205 19.7962 95.8 19.2414C95.7864 18.6812 95.7796 18.0132 95.7796 17.2375C95.7796 16.4618 95.7864 15.7966 95.8 15.2417C95.8137 14.6815 95.8683 14.2102 95.9637 13.8277C96.0592 13.4453 96.2127 13.1382 96.4241 12.9066C96.6356 12.675 96.9357 12.4972 97.3244 12.3733C97.7132 12.2494 98.2043 12.1686 98.7976 12.1309C99.3979 12.0878 100.134 12.0663 101.007 12.0663H106.266C107.248 12.0663 108.074 12.0932 108.742 12.1471C109.41 12.2009 109.949 12.3248 110.358 12.5187C110.768 12.7127 111.061 12.9982 111.238 13.3752Z"/>
<path fill-rule="evenodd" clip-rule="evenodd" d="M36.9939 23.7016H38.9582V21.116C38.9582 20.6635 38.9275 20.2595 38.8661 19.904C38.8116 19.5484 38.6956 19.2414 38.5183 18.9828C38.341 18.7243 38.0886 18.5142 37.7612 18.3526C37.4338 18.191 36.9973 18.0779 36.4517 18.0132C36.9973 17.9486 37.4509 17.8355 37.8124 17.6739C38.1738 17.5069 38.4637 17.286 38.682 17.0113C38.9002 16.7366 39.0537 16.4053 39.1424 16.0174C39.2378 15.6242 39.2856 15.169 39.2856 14.6519C39.2856 14.2479 39.2719 13.8789 39.2447 13.5449C39.2242 13.2109 39.1458 12.9093 39.0094 12.6399C38.8798 12.3706 38.6683 12.1363 38.3751 11.937C38.0886 11.7377 37.676 11.5707 37.1371 11.436C36.6051 11.3013 35.9265 11.2017 35.1012 11.137C34.2828 11.067 33.2733 11.032 32.0729 11.032H20.9521L20.974 23.7016H22.9164V18.5303H31.7456C32.6186 18.5303 33.3518 18.5438 33.9452 18.5707C34.5454 18.5923 35.0398 18.6354 35.4286 18.7C35.8174 18.7647 36.1175 18.8562 36.3289 18.9748C36.5403 19.0933 36.6938 19.2495 36.7893 19.4434C36.8916 19.6373 36.9496 19.8716 36.9632 20.1464C36.9837 20.4157 36.9939 20.7389 36.9939 21.116V23.7016ZM32.0729 17.2375H22.9164V12.3248H32.0729C32.946 12.3248 33.6792 12.3329 34.2725 12.3491C34.8727 12.3652 35.3672 12.4029 35.756 12.4622C36.1448 12.516 36.4449 12.5942 36.6563 12.6965C36.8677 12.7989 37.0212 12.9362 37.1167 13.1086C37.219 13.281 37.277 13.4937 37.2906 13.7469C37.3111 14.0001 37.3213 14.3018 37.3213 14.6519C37.3213 15.029 37.3111 15.3549 37.2906 15.6296C37.277 15.8989 37.219 16.1306 37.1167 16.3245C37.0212 16.5184 36.8677 16.6746 36.6563 16.7931C36.4449 16.9116 36.1448 17.0032 35.756 17.0678C35.3672 17.1325 34.8727 17.1783 34.2725 17.2052C33.6792 17.2268 32.946 17.2375 32.0729 17.2375Z"/>
<path d="M42.5594 11.032H44.5237V23.7016H42.5594V11.032Z"/>
<path d="M72.6786 23.7016H70.7143V11.032H74.1621L88.5669 21.8917V11.032H90.5312V23.7016H87.8744L72.6786 12.3248V23.7016Z"/>
<path d="M135.096 11.032V17.2375C135.096 17.9701 135.083 18.6381 135.055 19.2414C135.035 19.8447 134.956 20.3861 134.82 20.8655C134.69 21.3449 134.482 21.7624 134.196 22.1179C133.909 22.4734 133.5 22.7697 132.968 23.0067C132.436 23.2384 131.758 23.4107 130.932 23.5239C130.114 23.6424 129.104 23.7016 127.904 23.7016H123.3C122.1 23.7016 121.087 23.6424 120.262 23.5239C119.443 23.4107 118.768 23.2384 118.236 23.0067C117.704 22.7697 117.291 22.4734 116.998 22.1179C116.712 21.7624 116.5 21.3449 116.364 20.8655C116.234 20.3861 116.159 19.8447 116.139 19.2414C116.118 18.6381 116.108 17.9701 116.108 17.2375V11.032H118.072V17.2375C118.072 18.0132 118.079 18.6812 118.093 19.2414C118.113 19.7962 118.171 20.2649 118.267 20.6473C118.362 21.0298 118.512 21.3368 118.717 21.5685C118.928 21.8001 119.228 21.9779 119.617 22.1018C120.006 22.2256 120.497 22.3091 121.09 22.3522C121.691 22.3899 122.427 22.4088 123.3 22.4088H127.904C128.77 22.4088 129.503 22.3899 130.104 22.3522C130.704 22.3091 131.195 22.2256 131.577 22.1018C131.966 21.9779 132.266 21.8001 132.477 21.5685C132.689 21.3368 132.842 21.0298 132.938 20.6473C133.04 20.2649 133.098 19.7962 133.111 19.2414C133.125 18.6812 133.132 18.0132 133.132 17.2375L133.122 11.032H135.096Z"/>
<path d="M140.345 11.032H138.38V23.7016H152.785V22.1502H140.345V11.032Z"/>
<path fill-rule="evenodd" clip-rule="evenodd" d="M193.708 23.7016H195.672V21.116C195.672 20.6635 195.642 20.2595 195.58 19.904C195.526 19.5484 195.41 19.2414 195.232 18.9828C195.055 18.7243 194.803 18.5142 194.475 18.3526C194.148 18.191 193.711 18.0779 193.166 18.0132C193.711 17.9486 194.165 17.8355 194.526 17.6739C194.888 17.5069 195.178 17.286 195.396 17.0113C195.614 16.7366 195.768 16.4053 195.856 16.0174C195.952 15.6242 196 15.169 196 14.6519C196 14.2479 195.986 13.8789 195.959 13.5449C195.938 13.2109 195.86 12.9093 195.723 12.6399C195.594 12.3706 195.382 12.1363 195.089 11.937C194.803 11.7377 194.39 11.5707 193.851 11.436C193.319 11.3013 192.641 11.2017 191.815 11.137C190.997 11.067 189.987 11.032 188.787 11.032H177.666V23.7016H179.631V18.5303H188.46C189.333 18.5303 190.066 18.5438 190.659 18.5707C191.259 18.5923 191.754 18.6354 192.143 18.7C192.531 18.7647 192.832 18.8562 193.043 18.9748C193.254 19.0933 193.408 19.2495 193.503 19.4434C193.606 19.6373 193.664 19.8716 193.677 20.1464C193.698 20.4157 193.708 20.7389 193.708 21.116V23.7016ZM188.787 17.2375H179.631V12.3248H188.787C189.66 12.3248 190.393 12.3329 190.987 12.3491C191.587 12.3652 192.081 12.4029 192.47 12.4622C192.859 12.516 193.159 12.5942 193.37 12.6965C193.582 12.7989 193.735 12.9362 193.831 13.1086C193.933 13.281 193.991 13.4937 194.005 13.7469C194.025 14.0001 194.035 14.3018 194.035 14.6519C194.035 15.029 194.025 15.3549 194.005 15.6296C193.991 15.8989 193.933 16.1306 193.831 16.3245C193.735 16.5184 193.582 16.6746 193.37 16.7931C193.159 16.9116 192.859 17.0032 192.47 17.0678C192.081 17.1325 191.587 17.1783 190.987 17.2052C190.393 17.2268 189.66 17.2375 188.787 17.2375Z"/>
</mask>
<path d="M111.238 13.3752C111.416 13.7523 111.504 14.264 111.504 14.9105H113.468C113.468 14.4364 113.428 14.0055 113.346 13.6176C113.264 13.2298 113.117 12.8823 112.906 12.5753C112.701 12.2683 112.422 12.0016 112.067 11.7754C111.719 11.5491 111.279 11.3633 110.747 11.2178C110.215 11.067 109.581 10.9566 108.844 10.8866C108.108 10.8111 107.248 10.7734 106.266 10.7734H101.007C99.8071 10.7734 98.7942 10.8327 97.969 10.9512C97.1505 11.0643 96.4753 11.2394 95.9433 11.4764C95.4113 11.708 94.9986 12.0016 94.7054 12.3571C94.4189 12.7127 94.2075 13.1301 94.0711 13.6096C93.9415 14.089 93.8664 14.6303 93.846 15.2337C93.8255 15.837 93.8153 16.5049 93.8153 17.2375C93.8153 17.9701 93.8255 18.6381 93.846 19.2414C93.8664 19.8447 93.9415 20.3861 94.0711 20.8655C94.2075 21.3449 94.4189 21.7624 94.7054 22.1179C94.9986 22.4734 95.4113 22.7697 95.9433 23.0067C96.4753 23.2384 97.1505 23.4107 97.969 23.5239C98.7942 23.6424 99.8071 23.7016 101.007 23.7016H106.276C107.258 23.7016 108.118 23.6639 108.854 23.5885C109.591 23.5185 110.225 23.408 110.757 23.2572C111.289 23.101 111.729 22.9044 112.077 22.6674C112.425 22.4303 112.701 22.1502 112.906 21.827C113.117 21.4984 113.264 21.1268 113.346 20.712C113.428 20.2918 113.468 19.8232 113.468 19.306V17.2375H103.627V18.5303H111.504V19.306C111.504 19.737 111.48 20.114 111.433 20.4373C111.385 20.7551 111.293 21.0298 111.156 21.2614C111.027 21.4877 110.843 21.6762 110.604 21.827C110.365 21.9779 110.051 22.0964 109.663 22.1826C109.274 22.2687 108.803 22.328 108.251 22.3603C107.698 22.3926 107.04 22.4088 106.276 22.4088H101.007C100.134 22.4088 99.3979 22.3899 98.7976 22.3522C98.2043 22.3091 97.7132 22.2256 97.3244 22.1018C96.9357 21.9779 96.6356 21.8001 96.4241 21.5685C96.2195 21.3368 96.0695 21.0298 95.974 20.6473C95.8785 20.2649 95.8205 19.7962 95.8 19.2414C95.7864 18.6812 95.7796 18.0132 95.7796 17.2375C95.7796 16.4618 95.7864 15.7966 95.8 15.2417C95.8137 14.6815 95.8683 14.2102 95.9637 13.8277C96.0592 13.4453 96.2127 13.1382 96.4241 12.9066C96.6356 12.675 96.9357 12.4972 97.3244 12.3733C97.7132 12.2494 98.2043 12.1686 98.7976 12.1309C99.3979 12.0878 100.134 12.0663 101.007 12.0663H106.266C107.248 12.0663 108.074 12.0932 108.742 12.1471C109.41 12.2009 109.949 12.3248 110.358 12.5187C110.768 12.7127 111.061 12.9982 111.238 13.3752Z" fill="url(#paint0_linear_13_28)"/>
<path fill-rule="evenodd" clip-rule="evenodd" d="M36.9939 23.7016H38.9582V21.116C38.9582 20.6635 38.9275 20.2595 38.8661 19.904C38.8116 19.5484 38.6956 19.2414 38.5183 18.9828C38.341 18.7243 38.0886 18.5142 37.7612 18.3526C37.4338 18.191 36.9973 18.0779 36.4517 18.0132C36.9973 17.9486 37.4509 17.8355 37.8124 17.6739C38.1738 17.5069 38.4637 17.286 38.682 17.0113C38.9002 16.7366 39.0537 16.4053 39.1424 16.0174C39.2378 15.6242 39.2856 15.169 39.2856 14.6519C39.2856 14.2479 39.2719 13.8789 39.2447 13.5449C39.2242 13.2109 39.1458 12.9093 39.0094 12.6399C38.8798 12.3706 38.6683 12.1363 38.3751 11.937C38.0886 11.7377 37.676 11.5707 37.1371 11.436C36.6051 11.3013 35.9265 11.2017 35.1012 11.137C34.2828 11.067 33.2733 11.032 32.0729 11.032H20.9521L20.974 23.7016H22.9164V18.5303H31.7456C32.6186 18.5303 33.3518 18.5438 33.9452 18.5707C34.5454 18.5923 35.0398 18.6354 35.4286 18.7C35.8174 18.7647 36.1175 18.8562 36.3289 18.9748C36.5403 19.0933 36.6938 19.2495 36.7893 19.4434C36.8916 19.6373 36.9496 19.8716 36.9632 20.1464C36.9837 20.4157 36.9939 20.7389 36.9939 21.116V23.7016ZM32.0729 17.2375H22.9164V12.3248H32.0729C32.946 12.3248 33.6792 12.3329 34.2725 12.3491C34.8727 12.3652 35.3672 12.4029 35.756 12.4622C36.1448 12.516 36.4449 12.5942 36.6563 12.6965C36.8677 12.7989 37.0212 12.9362 37.1167 13.1086C37.219 13.281 37.277 13.4937 37.2906 13.7469C37.3111 14.0001 37.3213 14.3018 37.3213 14.6519C37.3213 15.029 37.3111 15.3549 37.2906 15.6296C37.277 15.8989 37.219 16.1306 37.1167 16.3245C37.0212 16.5184 36.8677 16.6746 36.6563 16.7931C36.4449 16.9116 36.1448 17.0032 35.756 17.0678C35.3672 17.1325 34.8727 17.1783 34.2725 17.2052C33.6792 17.2268 32.946 17.2375 32.0729 17.2375Z" fill="url(#paint1_linear_13_28)"/>
<path d="M42.5594 11.032H44.5237V23.7016H42.5594V11.032Z" fill="url(#paint2_linear_13_28)"/>
<path d="M72.6786 23.7016H70.7143V11.032H74.1621L88.5669 21.8917V11.032H90.5312V23.7016H87.8744L72.6786 12.3248V23.7016Z" fill="url(#paint3_linear_13_28)"/>
<path d="M135.096 11.032V17.2375C135.096 17.9701 135.083 18.6381 135.055 19.2414C135.035 19.8447 134.956 20.3861 134.82 20.8655C134.69 21.3449 134.482 21.7624 134.196 22.1179C133.909 22.4734 133.5 22.7697 132.968 23.0067C132.436 23.2384 131.758 23.4107 130.932 23.5239C130.114 23.6424 129.104 23.7016 127.904 23.7016H123.3C122.1 23.7016 121.087 23.6424 120.262 23.5239C119.443 23.4107 118.768 23.2384 118.236 23.0067C117.704 22.7697 117.291 22.4734 116.998 22.1179C116.712 21.7624 116.5 21.3449 116.364 20.8655C116.234 20.3861 116.159 19.8447 116.139 19.2414C116.118 18.6381 116.108 17.9701 116.108 17.2375V11.032H118.072V17.2375C118.072 18.0132 118.079 18.6812 118.093 19.2414C118.113 19.7962 118.171 20.2649 118.267 20.6473C118.362 21.0298 118.512 21.3368 118.717 21.5685C118.928 21.8001 119.228 21.9779 119.617 22.1018C120.006 22.2256 120.497 22.3091 121.09 22.3522C121.691 22.3899 122.427 22.4088 123.3 22.4088H127.904C128.77 22.4088 129.503 22.3899 130.104 22.3522C130.704 22.3091 131.195 22.2256 131.577 22.1018C131.966 21.9779 132.266 21.8001 132.477 21.5685C132.689 21.3368 132.842 21.0298 132.938 20.6473C133.04 20.2649 133.098 19.7962 133.111 19.2414C133.125 18.6812 133.132 18.0132 133.132 17.2375L133.122 11.032H135.096Z" fill="url(#paint4_linear_13_28)"/>
<path d="M140.345 11.032H138.38V23.7016H152.785V22.1502H140.345V11.032Z" fill="url(#paint5_linear_13_28)"/>
<path fill-rule="evenodd" clip-rule="evenodd" d="M193.708 23.7016H195.672V21.116C195.672 20.6635 195.642 20.2595 195.58 19.904C195.526 19.5484 195.41 19.2414 195.232 18.9828C195.055 18.7243 194.803 18.5142 194.475 18.3526C194.148 18.191 193.711 18.0779 193.166 18.0132C193.711 17.9486 194.165 17.8355 194.526 17.6739C194.888 17.5069 195.178 17.286 195.396 17.0113C195.614 16.7366 195.768 16.4053 195.856 16.0174C195.952 15.6242 196 15.169 196 14.6519C196 14.2479 195.986 13.8789 195.959 13.5449C195.938 13.2109 195.86 12.9093 195.723 12.6399C195.594 12.3706 195.382 12.1363 195.089 11.937C194.803 11.7377 194.39 11.5707 193.851 11.436C193.319 11.3013 192.641 11.2017 191.815 11.137C190.997 11.067 189.987 11.032 188.787 11.032H177.666V23.7016H179.631V18.5303H188.46C189.333 18.5303 190.066 18.5438 190.659 18.5707C191.259 18.5923 191.754 18.6354 192.143 18.7C192.531 18.7647 192.832 18.8562 193.043 18.9748C193.254 19.0933 193.408 19.2495 193.503 19.4434C193.606 19.6373 193.664 19.8716 193.677 20.1464C193.698 20.4157 193.708 20.7389 193.708 21.116V23.7016ZM188.787 17.2375H179.631V12.3248H188.787C189.66 12.3248 190.393 12.3329 190.987 12.3491C191.587 12.3652 192.081 12.4029 192.47 12.4622C192.859 12.516 193.159 12.5942 193.37 12.6965C193.582 12.7989 193.735 12.9362 193.831 13.1086C193.933 13.281 193.991 13.4937 194.005 13.7469C194.025 14.0001 194.035 14.3018 194.035 14.6519C194.035 15.029 194.025 15.3549 194.005 15.6296C193.991 15.8989 193.933 16.1306 193.831 16.3245C193.735 16.5184 193.582 16.6746 193.37 16.7931C193.159 16.9116 192.859 17.0032 192.47 17.0678C192.081 17.1325 191.587 17.1783 190.987 17.2052C190.393 17.2268 189.66 17.2375 188.787 17.2375Z" fill="url(#paint6_linear_13_28)"/>
<path d="M111.238 13.3752C111.416 13.7523 111.504 14.264 111.504 14.9105H113.468C113.468 14.4364 113.428 14.0055 113.346 13.6176C113.264 13.2298 113.117 12.8823 112.906 12.5753C112.701 12.2683 112.422 12.0016 112.067 11.7754C111.719 11.5491 111.279 11.3633 110.747 11.2178C110.215 11.067 109.581 10.9566 108.844 10.8866C108.108 10.8111 107.248 10.7734 106.266 10.7734H101.007C99.8071 10.7734 98.7942 10.8327 97.969 10.9512C97.1505 11.0643 96.4753 11.2394 95.9433 11.4764C95.4113 11.708 94.9986 12.0016 94.7054 12.3571C94.4189 12.7127 94.2075 13.1301 94.0711 13.6096C93.9415 14.089 93.8664 14.6303 93.846 15.2337C93.8255 15.837 93.8153 16.5049 93.8153 17.2375C93.8153 17.9701 93.8255 18.6381 93.846 19.2414C93.8664 19.8447 93.9415 20.3861 94.0711 20.8655C94.2075 21.3449 94.4189 21.7624 94.7054 22.1179C94.9986 22.4734 95.4113 22.7697 95.9433 23.0067C96.4753 23.2384 97.1505 23.4107 97.969 23.5239C98.7942 23.6424 99.8071 23.7016 101.007 23.7016H106.276C107.258 23.7016 108.118 23.6639 108.854 23.5885C109.591 23.5185 110.225 23.408 110.757 23.2572C111.289 23.101 111.729 22.9044 112.077 22.6674C112.425 22.4303 112.701 22.1502 112.906 21.827C113.117 21.4984 113.264 21.1268 113.346 20.712C113.428 20.2918 113.468 19.8232 113.468 19.306V17.2375H103.627V18.5303H111.504V19.306C111.504 19.737 111.48 20.114 111.433 20.4373C111.385 20.7551 111.293 21.0298 111.156 21.2614C111.027 21.4877 110.843 21.6762 110.604 21.827C110.365 21.9779 110.051 22.0964 109.663 22.1826C109.274 22.2687 108.803 22.328 108.251 22.3603C107.698 22.3926 107.04 22.4088 106.276 22.4088H101.007C100.134 22.4088 99.3979 22.3899 98.7976 22.3522C98.2043 22.3091 97.7132 22.2256 97.3244 22.1018C96.9357 21.9779 96.6356 21.8001 96.4241 21.5685C96.2195 21.3368 96.0695 21.0298 95.974 20.6473C95.8785 20.2649 95.8205 19.7962 95.8 19.2414C95.7864 18.6812 95.7796 18.0132 95.7796 17.2375C95.7796 16.4618 95.7864 15.7966 95.8 15.2417C95.8137 14.6815 95.8683 14.2102 95.9637 13.8277C96.0592 13.4453 96.2127 13.1382 96.4241 12.9066C96.6356 12.675 96.9357 12.4972 97.3244 12.3733C97.7132 12.2494 98.2043 12.1686 98.7976 12.1309C99.3979 12.0878 100.134 12.0663 101.007 12.0663H106.266C107.248 12.0663 108.074 12.0932 108.742 12.1471C109.41 12.2009 109.949 12.3248 110.358 12.5187C110.768 12.7127 111.061 12.9982 111.238 13.3752Z" stroke="url(#paint7_linear_13_28)" mask="url(#path-1-outside-1_13_28)"/>
<path fill-rule="evenodd" clip-rule="evenodd" d="M36.9939 23.7016H38.9582V21.116C38.9582 20.6635 38.9275 20.2595 38.8661 19.904C38.8116 19.5484 38.6956 19.2414 38.5183 18.9828C38.341 18.7243 38.0886 18.5142 37.7612 18.3526C37.4338 18.191 36.9973 18.0779 36.4517 18.0132C36.9973 17.9486 37.4509 17.8355 37.8124 17.6739C38.1738 17.5069 38.4637 17.286 38.682 17.0113C38.9002 16.7366 39.0537 16.4053 39.1424 16.0174C39.2378 15.6242 39.2856 15.169 39.2856 14.6519C39.2856 14.2479 39.2719 13.8789 39.2447 13.5449C39.2242 13.2109 39.1458 12.9093 39.0094 12.6399C38.8798 12.3706 38.6683 12.1363 38.3751 11.937C38.0886 11.7377 37.676 11.5707 37.1371 11.436C36.6051 11.3013 35.9265 11.2017 35.1012 11.137C34.2828 11.067 33.2733 11.032 32.0729 11.032H20.9521L20.974 23.7016H22.9164V18.5303H31.7456C32.6186 18.5303 33.3518 18.5438 33.9452 18.5707C34.5454 18.5923 35.0398 18.6354 35.4286 18.7C35.8174 18.7647 36.1175 18.8562 36.3289 18.9748C36.5403 19.0933 36.6938 19.2495 36.7893 19.4434C36.8916 19.6373 36.9496 19.8716 36.9632 20.1464C36.9837 20.4157 36.9939 20.7389 36.9939 21.116V23.7016ZM32.0729 17.2375H22.9164V12.3248H32.0729C32.946 12.3248 33.6792 12.3329 34.2725 12.3491C34.8727 12.3652 35.3672 12.4029 35.756 12.4622C36.1448 12.516 36.4449 12.5942 36.6563 12.6965C36.8677 12.7989 37.0212 12.9362 37.1167 13.1086C37.219 13.281 37.277 13.4937 37.2906 13.7469C37.3111 14.0001 37.3213 14.3018 37.3213 14.6519C37.3213 15.029 37.3111 15.3549 37.2906 15.6296C37.277 15.8989 37.219 16.1306 37.1167 16.3245C37.0212 16.5184 36.8677 16.6746 36.6563 16.7931C36.4449 16.9116 36.1448 17.0032 35.756 17.0678C35.3672 17.1325 34.8727 17.1783 34.2725 17.2052C33.6792 17.2268 32.946 17.2375 32.0729 17.2375Z" stroke="url(#paint8_linear_13_28)" mask="url(#path-1-outside-1_13_28)"/>
<path d="M42.5594 11.032H44.5237V23.7016H42.5594V11.032Z" stroke="url(#paint9_linear_13_28)" mask="url(#path-1-outside-1_13_28)"/>
<path d="M72.6786 23.7016H70.7143V11.032H74.1621L88.5669 21.8917V11.032H90.5312V23.7016H87.8744L72.6786 12.3248V23.7016Z" stroke="url(#paint10_linear_13_28)" mask="url(#path-1-outside-1_13_28)"/>
<path d="M135.096 11.032V17.2375C135.096 17.9701 135.083 18.6381 135.055 19.2414C135.035 19.8447 134.956 20.3861 134.82 20.8655C134.69 21.3449 134.482 21.7624 134.196 22.1179C133.909 22.4734 133.5 22.7697 132.968 23.0067C132.436 23.2384 131.758 23.4107 130.932 23.5239C130.114 23.6424 129.104 23.7016 127.904 23.7016H123.3C122.1 23.7016 121.087 23.6424 120.262 23.5239C119.443 23.4107 118.768 23.2384 118.236 23.0067C117.704 22.7697 117.291 22.4734 116.998 22.1179C116.712 21.7624 116.5 21.3449 116.364 20.8655C116.234 20.3861 116.159 19.8447 116.139 19.2414C116.118 18.6381 116.108 17.9701 116.108 17.2375V11.032H118.072V17.2375C118.072 18.0132 118.079 18.6812 118.093 19.2414C118.113 19.7962 118.171 20.2649 118.267 20.6473C118.362 21.0298 118.512 21.3368 118.717 21.5685C118.928 21.8001 119.228 21.9779 119.617 22.1018C120.006 22.2256 120.497 22.3091 121.09 22.3522C121.691 22.3899 122.427 22.4088 123.3 22.4088H127.904C128.77 22.4088 129.503 22.3899 130.104 22.3522C130.704 22.3091 131.195 22.2256 131.577 22.1018C131.966 21.9779 132.266 21.8001 132.477 21.5685C132.689 21.3368 132.842 21.0298 132.938 20.6473C133.04 20.2649 133.098 19.7962 133.111 19.2414C133.125 18.6812 133.132 18.0132 133.132 17.2375L133.122 11.032H135.096Z" stroke="url(#paint11_linear_13_28)" mask="url(#path-1-outside-1_13_28)"/>
<path d="M140.345 11.032H138.38V23.7016H152.785V22.1502H140.345V11.032Z" stroke="url(#paint12_linear_13_28)" mask="url(#path-1-outside-1_13_28)"/>
<path fill-rule="evenodd" clip-rule="evenodd" d="M193.708 23.7016H195.672V21.116C195.672 20.6635 195.642 20.2595 195.58 19.904C195.526 19.5484 195.41 19.2414 195.232 18.9828C195.055 18.7243 194.803 18.5142 194.475 18.3526C194.148 18.191 193.711 18.0779 193.166 18.0132C193.711 17.9486 194.165 17.8355 194.526 17.6739C194.888 17.5069 195.178 17.286 195.396 17.0113C195.614 16.7366 195.768 16.4053 195.856 16.0174C195.952 15.6242 196 15.169 196 14.6519C196 14.2479 195.986 13.8789 195.959 13.5449C195.938 13.2109 195.86 12.9093 195.723 12.6399C195.594 12.3706 195.382 12.1363 195.089 11.937C194.803 11.7377 194.39 11.5707 193.851 11.436C193.319 11.3013 192.641 11.2017 191.815 11.137C190.997 11.067 189.987 11.032 188.787 11.032H177.666V23.7016H179.631V18.5303H188.46C189.333 18.5303 190.066 18.5438 190.659 18.5707C191.259 18.5923 191.754 18.6354 192.143 18.7C192.531 18.7647 192.832 18.8562 193.043 18.9748C193.254 19.0933 193.408 19.2495 193.503 19.4434C193.606 19.6373 193.664 19.8716 193.677 20.1464C193.698 20.4157 193.708 20.7389 193.708 21.116V23.7016ZM188.787 17.2375H179.631V12.3248H188.787C189.66 12.3248 190.393 12.3329 190.987 12.3491C191.587 12.3652 192.081 12.4029 192.47 12.4622C192.859 12.516 193.159 12.5942 193.37 12.6965C193.582 12.7989 193.735 12.9362 193.831 13.1086C193.933 13.281 193.991 13.4937 194.005 13.7469C194.025 14.0001 194.035 14.3018 194.035 14.6519C194.035 15.029 194.025 15.3549 194.005 15.6296C193.991 15.8989 193.933 16.1306 193.831 16.3245C193.735 16.5184 193.582 16.6746 193.37 16.7931C193.159 16.9116 192.859 17.0032 192.47 17.0678C192.081 17.1325 191.587 17.1783 190.987 17.2052C190.393 17.2268 189.66 17.2375 188.787 17.2375Z" stroke="url(#paint13_linear_13_28)" mask="url(#path-1-outside-1_13_28)"/>
<path d="M137.417 0.100302H141.1C141.405 0.100302 141.661 0.113884 141.87 0.141049C142.08 0.166125 142.254 0.204783 142.39 0.257023C142.526 0.309264 142.63 0.374042 142.703 0.451358C142.777 0.528674 142.831 0.619572 142.865 0.724053C142.9 0.828534 142.919 0.945553 142.923 1.07511C142.929 1.20467 142.932 1.3478 142.932 1.50453C142.932 1.66752 142.928 1.81797 142.92 1.95588C142.913 2.0938 142.889 2.21918 142.846 2.33202C142.806 2.44277 142.74 2.54098 142.648 2.62665C142.559 2.71024 142.43 2.78024 142.262 2.83666C142.096 2.89308 141.885 2.93592 141.627 2.96517C141.372 2.99443 141.057 3.00905 140.682 3.00905H138.03V4.91479H137.417V0.100302ZM138.03 2.50754H140.682C140.955 2.50754 141.183 2.50336 141.368 2.49501C141.556 2.48456 141.71 2.4668 141.831 2.44172C141.953 2.41665 142.046 2.38112 142.112 2.33515C142.178 2.28918 142.226 2.22858 142.256 2.15335C142.288 2.07813 142.306 1.98827 142.31 1.88379C142.316 1.77722 142.32 1.6508 142.32 1.50453C142.32 1.3687 142.316 1.25168 142.31 1.15347C142.306 1.05526 142.288 0.972718 142.256 0.90585C142.226 0.838982 142.178 0.785697 142.112 0.745994C142.046 0.706291 141.953 0.675992 141.831 0.655096C141.71 0.63211 141.556 0.617483 141.368 0.611214C141.183 0.604945 140.955 0.601811 140.682 0.601811H138.03V2.50754Z" fill="#3D591B"/>
<path d="M148.55 3.81147H144.669L144.056 4.91479H143.341L146.201 0.100302H147.018L149.878 4.91479H149.163L148.55 3.81147ZM148.244 3.30996L146.609 0.501509L144.975 3.30996H148.244Z" fill="#3D591B"/>
<path d="M150.695 0.100302H151.308V4.91479H150.695V0.100302Z" fill="#3D591B"/>
<path d="M155.623 2.20664C155.959 2.20664 156.248 2.22022 156.488 2.24739C156.729 2.27455 156.931 2.3153 157.095 2.36963C157.261 2.42187 157.393 2.48769 157.49 2.5671C157.588 2.6465 157.664 2.7374 157.717 2.83979C157.77 2.94009 157.804 3.05293 157.819 3.17831C157.836 3.30369 157.845 3.43951 157.845 3.58579C157.845 3.73206 157.831 3.86998 157.803 3.99953C157.778 4.127 157.731 4.24402 157.663 4.35059C157.595 4.45716 157.502 4.55224 157.385 4.63582C157.268 4.71941 157.119 4.79045 156.938 4.84896C156.757 4.90747 156.539 4.95135 156.284 4.98061C156.031 5.01195 155.734 5.02763 155.393 5.02763H154.576C154.27 5.02763 154.002 5.01613 153.772 4.99315C153.542 4.97016 153.344 4.93568 153.178 4.88971C153.012 4.84165 152.875 4.78209 152.767 4.71105C152.658 4.63791 152.571 4.55328 152.505 4.45716C152.441 4.35895 152.396 4.2482 152.371 4.12491C152.345 3.99953 152.332 3.86162 152.332 3.71116H152.945C152.945 3.89923 152.973 4.04655 153.028 4.15312C153.084 4.25969 153.175 4.34014 153.303 4.39447C153.43 4.44671 153.597 4.48014 153.804 4.49477C154.012 4.50731 154.27 4.51358 154.576 4.51358H155.393C155.751 4.51358 156.048 4.49686 156.284 4.46343C156.52 4.42999 156.708 4.37671 156.849 4.30357C156.989 4.23044 157.088 4.13536 157.146 4.01834C157.203 3.89923 157.232 3.75505 157.232 3.58579C157.232 3.41653 157.212 3.27548 157.171 3.16264C157.133 3.0498 157.055 2.95995 156.938 2.89308C156.823 2.82621 156.661 2.77919 156.45 2.75203C156.239 2.72277 155.964 2.70815 155.623 2.70815H154.781C154.406 2.70815 154.085 2.69456 153.817 2.6674C153.551 2.64023 153.327 2.60158 153.146 2.55143C152.966 2.49919 152.821 2.43545 152.712 2.36023C152.604 2.28291 152.521 2.19515 152.463 2.09693C152.408 1.99872 152.372 1.89006 152.355 1.77095C152.338 1.64975 152.329 1.51915 152.329 1.37915C152.329 1.23288 152.342 1.09705 152.368 0.971673C152.395 0.846296 152.445 0.733457 152.518 0.633155C152.59 0.530763 152.689 0.439865 152.814 0.360459C152.94 0.281054 153.101 0.215231 153.296 0.16299C153.494 0.10866 153.732 0.0679126 154.008 0.0407476C154.285 0.0135825 154.61 0 154.985 0H155.598C155.904 0 156.172 0.0114929 156.402 0.0344787C156.632 0.0553749 156.83 0.0898537 156.996 0.137915C157.162 0.183887 157.299 0.242396 157.407 0.313443C157.518 0.3824 157.605 0.465985 157.669 0.564197C157.735 0.66032 157.781 0.770025 157.806 0.893312C157.832 1.0166 157.845 1.15347 157.845 1.30392H157.232C157.232 1.11586 157.204 0.968539 157.149 0.861968C157.094 0.755398 157.002 0.675992 156.874 0.623752C156.747 0.569421 156.579 0.535987 156.37 0.52345C156.162 0.508822 155.904 0.501509 155.598 0.501509H154.985C154.576 0.501509 154.24 0.516136 153.976 0.545391C153.712 0.572556 153.504 0.619572 153.351 0.68644C153.197 0.753308 153.091 0.843162 153.031 0.956001C152.972 1.06884 152.942 1.20989 152.942 1.37915C152.942 1.48363 152.95 1.57662 152.964 1.65811C152.979 1.73961 153.009 1.8117 153.054 1.87439C153.101 1.93499 153.166 1.98618 153.249 2.02798C153.332 2.06977 153.441 2.10425 153.577 2.13141C153.713 2.15858 153.879 2.17843 154.075 2.19097C154.273 2.20141 154.508 2.20664 154.781 2.20664H155.623Z" fill="#3D591B"/>
<path d="M163.667 3.81147H159.785L159.173 4.91479H158.458L161.317 0.100302H162.135L164.994 4.91479H164.28L163.667 3.81147ZM163.36 3.30996L161.726 0.501509L160.092 3.30996H163.36Z" fill="#3D591B"/>
<path d="M171.126 1.60483C171.126 1.35407 171.098 1.15556 171.043 1.00929C170.988 0.863013 170.896 0.752263 170.769 0.677037C170.641 0.601811 170.473 0.553749 170.264 0.532853C170.056 0.511957 169.798 0.501509 169.492 0.501509H167.851C167.579 0.501509 167.349 0.509867 167.162 0.526584C166.977 0.541212 166.823 0.572556 166.702 0.620617C166.581 0.668678 166.487 0.737636 166.421 0.827489C166.355 0.917343 166.307 1.03645 166.278 1.18481C166.248 1.33318 166.231 1.51602 166.227 1.73334C166.222 1.94857 166.22 2.20664 166.22 2.50754C166.22 2.80845 166.222 3.06756 166.227 3.28488C166.233 3.50011 166.251 3.68191 166.281 3.83027C166.311 3.97864 166.357 4.09774 166.421 4.1876C166.487 4.27745 166.581 4.34641 166.702 4.39447C166.823 4.44253 166.977 4.47492 167.162 4.49164C167.349 4.50627 167.579 4.51358 167.851 4.51358H169.495C169.733 4.51358 169.939 4.50731 170.111 4.49477C170.283 4.48223 170.43 4.45925 170.551 4.42581C170.673 4.39238 170.771 4.34641 170.845 4.2879C170.92 4.22939 170.977 4.15625 171.017 4.06849C171.06 3.97864 171.089 3.87207 171.104 3.74878C171.119 3.6234 171.126 3.47713 171.126 3.30996V3.00905H168.668V2.50754H171.739V3.30996C171.739 3.51056 171.726 3.69236 171.701 3.85535C171.675 4.01625 171.629 4.16043 171.563 4.2879C171.499 4.41328 171.413 4.52194 171.305 4.61388C171.196 4.70582 171.059 4.78209 170.893 4.84269C170.727 4.9012 170.529 4.94404 170.299 4.97121C170.07 5.00046 169.801 5.01509 169.495 5.01509H167.851C167.477 5.01509 167.161 4.9921 166.903 4.94613C166.648 4.90225 166.437 4.83538 166.271 4.74553C166.105 4.65358 165.977 4.53865 165.885 4.40074C165.796 4.26282 165.73 4.10088 165.687 3.9149C165.647 3.72893 165.623 3.51892 165.617 3.28488C165.611 3.05084 165.607 2.79173 165.607 2.50754C165.607 2.22336 165.611 1.96424 165.617 1.73021C165.623 1.49617 165.647 1.28616 165.687 1.10018C165.73 0.914209 165.796 0.752263 165.885 0.614348C165.977 0.476433 166.105 0.362549 166.271 0.272695C166.437 0.180752 166.648 0.112839 166.903 0.0689575C167.161 0.0229858 167.477 0 167.851 0H169.492C169.798 0 170.066 0.0146273 170.296 0.043882C170.526 0.0710471 170.724 0.113884 170.89 0.172394C171.056 0.228813 171.193 0.300905 171.302 0.388669C171.412 0.476433 171.499 0.57987 171.563 0.698978C171.629 0.818086 171.675 0.952867 171.701 1.10332C171.726 1.25377 171.739 1.42094 171.739 1.60483H171.126Z" fill="#3D591B"/>
<path d="M172.763 0.100302H173.376V4.91479H172.763V0.100302Z" fill="#3D591B"/>
<path d="M177.692 2.20664C178.028 2.20664 178.316 2.22022 178.557 2.24739C178.797 2.27455 178.999 2.3153 179.163 2.36963C179.329 2.42187 179.461 2.48769 179.559 2.5671C179.657 2.6465 179.732 2.7374 179.785 2.83979C179.839 2.94009 179.873 3.05293 179.888 3.17831C179.905 3.30369 179.913 3.43951 179.913 3.58579C179.913 3.73206 179.899 3.86998 179.872 3.99953C179.846 4.127 179.799 4.24402 179.731 4.35059C179.663 4.45716 179.571 4.55224 179.454 4.63582C179.336 4.71941 179.188 4.79045 179.007 4.84896C178.826 4.90747 178.608 4.95135 178.352 4.98061C178.099 5.01195 177.802 5.02763 177.462 5.02763H176.645C176.338 5.02763 176.07 5.01613 175.84 4.99315C175.611 4.97016 175.413 4.93568 175.247 4.88971C175.081 4.84165 174.943 4.78209 174.835 4.71105C174.726 4.63791 174.639 4.55328 174.573 4.45716C174.509 4.35895 174.465 4.2482 174.439 4.12491C174.414 3.99953 174.401 3.86162 174.401 3.71116H175.014C175.014 3.89923 175.041 4.04655 175.097 4.15312C175.152 4.25969 175.243 4.34014 175.371 4.39447C175.499 4.44671 175.666 4.48014 175.872 4.49477C176.081 4.50731 176.338 4.51358 176.645 4.51358H177.462C177.819 4.51358 178.116 4.49686 178.352 4.46343C178.589 4.42999 178.777 4.37671 178.917 4.30357C179.058 4.23044 179.157 4.13536 179.214 4.01834C179.272 3.89923 179.3 3.75505 179.3 3.58579C179.3 3.41653 179.28 3.27548 179.24 3.16264C179.201 3.0498 179.124 2.95995 179.007 2.89308C178.892 2.82621 178.729 2.77919 178.518 2.75203C178.308 2.72277 178.032 2.70815 177.692 2.70815H176.849C176.474 2.70815 176.153 2.69456 175.885 2.6674C175.619 2.64023 175.396 2.60158 175.215 2.55143C175.034 2.49919 174.889 2.43545 174.781 2.36023C174.672 2.28291 174.589 2.19515 174.532 2.09693C174.476 1.99872 174.44 1.89006 174.423 1.77095C174.406 1.64975 174.398 1.51915 174.398 1.37915C174.398 1.23288 174.41 1.09705 174.436 0.971673C174.464 0.846296 174.514 0.733457 174.586 0.633155C174.658 0.530763 174.757 0.439865 174.883 0.360459C175.008 0.281054 175.169 0.215231 175.365 0.16299C175.563 0.10866 175.8 0.0679126 176.077 0.0407476C176.353 0.0135825 176.679 0 177.053 0H177.666C177.973 0 178.241 0.0114929 178.47 0.0344787C178.7 0.0553749 178.898 0.0898537 179.064 0.137915C179.23 0.183887 179.367 0.242396 179.476 0.313443C179.587 0.3824 179.674 0.465985 179.738 0.564197C179.804 0.66032 179.849 0.770025 179.875 0.893312C179.9 1.0166 179.913 1.15347 179.913 1.30392H179.3C179.3 1.11586 179.273 0.968539 179.217 0.861968C179.162 0.755398 179.07 0.675992 178.943 0.623752C178.815 0.569421 178.647 0.535987 178.439 0.52345C178.23 0.508822 177.973 0.501509 177.666 0.501509H177.053C176.645 0.501509 176.308 0.516136 176.045 0.545391C175.781 0.572556 175.572 0.619572 175.419 0.68644C175.266 0.753308 175.159 0.843162 175.1 0.956001C175.04 1.06884 175.01 1.20989 175.01 1.37915C175.01 1.48363 175.018 1.57662 175.033 1.65811C175.048 1.73961 175.078 1.8117 175.122 1.87439C175.169 1.93499 175.234 1.98618 175.317 2.02798C175.4 2.06977 175.509 2.10425 175.646 2.13141C175.782 2.15858 175.948 2.17843 176.144 2.19097C176.341 2.20141 176.577 2.20664 176.849 2.20664H177.692Z" fill="#3D591B"/>
<path d="M181.547 0.501509V4.91479H180.935V0.100302H181.956L184.813 4.31298L187.669 0.100302H188.646V4.91479H188.033V0.567332L185.122 4.91479H184.503L181.547 0.501509Z" fill="#3D591B"/>
<path d="M193.756 0C194.131 0 194.446 0.0229858 194.701 0.0689575C194.958 0.112839 195.17 0.180752 195.336 0.272695C195.502 0.362549 195.63 0.476433 195.719 0.614348C195.809 0.752263 195.873 0.914209 195.914 1.10018C195.956 1.28616 195.981 1.49617 195.987 1.73021C195.996 1.96424 196 2.22336 196 2.50754C196 2.79173 195.996 3.05084 195.987 3.28488C195.981 3.51892 195.956 3.72893 195.914 3.9149C195.873 4.10088 195.809 4.26282 195.719 4.40074C195.63 4.53865 195.502 4.65358 195.336 4.74553C195.17 4.83538 194.958 4.90225 194.701 4.94613C194.446 4.9921 194.131 5.01509 193.756 5.01509H191.911C191.537 5.01509 191.221 4.9921 190.963 4.94613C190.708 4.90225 190.497 4.83538 190.331 4.74553C190.165 4.65358 190.037 4.53865 189.945 4.40074C189.856 4.26282 189.79 4.10088 189.747 3.9149C189.707 3.72893 189.683 3.51892 189.677 3.28488C189.671 3.05084 189.667 2.79173 189.667 2.50754C189.667 2.22336 189.671 1.96424 189.677 1.73021C189.683 1.49617 189.707 1.28616 189.747 1.10018C189.79 0.914209 189.856 0.752263 189.945 0.614348C190.037 0.476433 190.165 0.362549 190.331 0.272695C190.497 0.180752 190.708 0.112839 190.963 0.0689575C191.221 0.0229858 191.537 0 191.911 0H193.756ZM193.756 4.51358C194.026 4.51358 194.254 4.50627 194.439 4.49164C194.626 4.47492 194.781 4.44253 194.902 4.39447C195.023 4.34641 195.117 4.27745 195.183 4.1876C195.249 4.09774 195.297 3.97864 195.327 3.83027C195.356 3.68191 195.373 3.50011 195.378 3.28488C195.384 3.06756 195.387 2.80845 195.387 2.50754C195.387 2.20664 195.384 1.94857 195.378 1.73334C195.373 1.51602 195.356 1.33318 195.327 1.18481C195.297 1.03645 195.249 0.917343 195.183 0.827489C195.117 0.737636 195.023 0.668678 194.902 0.620617C194.783 0.572556 194.63 0.541212 194.442 0.526584C194.257 0.509867 194.029 0.501509 193.756 0.501509H191.911C191.639 0.501509 191.409 0.509867 191.222 0.526584C191.037 0.541212 190.883 0.572556 190.762 0.620617C190.641 0.668678 190.547 0.737636 190.481 0.827489C190.415 0.917343 190.367 1.03645 190.338 1.18481C190.308 1.33318 190.291 1.51602 190.287 1.73334C190.282 1.94857 190.28 2.20664 190.28 2.50754C190.28 2.80845 190.282 3.06756 190.287 3.28488C190.293 3.50011 190.311 3.68191 190.341 3.83027C190.371 3.97864 190.417 4.09774 190.481 4.1876C190.547 4.27745 190.641 4.34641 190.762 4.39447C190.883 4.44253 191.037 4.47492 191.222 4.49164C191.409 4.50627 191.639 4.51358 191.911 4.51358H193.756Z" fill="#3D591B"/>
<path fill-rule="evenodd" clip-rule="evenodd" d="M67.9854 26.5745L58.8544 10.953H56.2326L47.0564 26.5745H47.0112L110.657 65L175.749 26.5746L166.573 10.953H163.951L154.775 26.5746L110.657 52.79L67.9854 26.5745ZM51.3168 22.9946L49.181 26.5746L110.657 63.2044L173.579 26.5746L171.489 22.9946L170.506 21.3674L165.262 12.2548L161.982 17.9558H161.962L160.742 20.1105L160.019 21.3674L159.035 22.9946L156.945 26.5746L110.657 54.2265L65.816 26.5746H65.8157L63.7702 22.9946L62.7871 21.3674L57.5435 12.2548L54.2631 17.9558H54.2437L53.0232 20.1105L52.3 21.3674L51.3168 22.9946Z" fill="url(#paint14_linear_13_28)" stroke="url(#paint15_linear_13_28)" stroke-width="0.5"/>
<path fill-rule="evenodd" clip-rule="evenodd" d="M69.1118 26.4849H153.658L110.656 51.8176L69.1118 26.4849ZM69.7518 26.6644L110.658 51.6079L152.999 26.6644H69.7518Z" fill="url(#paint16_linear_13_28)"/>
<path d="M50.6274 26.5746L57.4983 14.3646L64.3691 26.5746L110.657 55.3039L158.391 26.5746L165.262 14.3646L172.133 26.5746L110.657 61.7679L50.6274 26.5746Z" fill="url(#paint17_linear_13_28)"/>
<path d="M110.657 51.7127L69.4316 26.5746H153.328L110.657 51.7127Z" fill="url(#paint18_linear_13_28)"/>
<path d="M0 7.90051H196V9.33698H9.82148V23.7016H7.85719V9.33698H0V7.90051Z" fill="url(#paint19_linear_13_28)"/>
<path fill-rule="evenodd" clip-rule="evenodd" d="M9.82148 9.33698H196V7.90051H0V9.33698H7.85719V23.7016H9.82148V9.33698ZM9.64067 23.5221V9.15742H195.819V8.08007H0.180812V9.15742H8.038V23.5221H9.64067Z" fill="url(#paint20_linear_13_28)"/>
<path d="M109.591 50.4038C109.698 49.9141 109.9 48.7433 109.86 47.9774C109.823 47.282 109.742 47.2659 109.579 47.2333C109.517 47.221 109.444 47.2063 109.356 47.1521C109.101 46.9937 108.836 46.6789 108.735 46.5414H108.836C108.976 46.6459 109.289 46.8616 109.423 46.888C109.558 46.9144 109.692 46.899 109.742 46.888C109.552 46.7615 109.138 46.4787 109.004 46.3598C108.87 46.241 108.713 46.1012 108.652 46.0462L109.004 46.1948C109.183 46.3103 109.605 46.5414 109.86 46.5414C110.115 46.5414 110.223 46.4864 110.246 46.4589C110.111 46.4534 109.759 46.3796 109.423 46.1287C109.088 45.8779 108.769 45.7161 108.652 45.6666L109.138 45.7326C109.177 45.7766 109.316 45.8911 109.558 45.9967C109.799 46.1023 110.117 46.1287 110.246 46.1287C109.944 46.0737 109.299 45.8911 109.138 45.6006C108.937 45.2374 104.993 42.9926 102.023 45.1879C102.594 44.159 104.493 42.4909 107.527 44.049C107.857 44.2141 108.662 44.6894 109.239 45.2704C109.328 45.353 109.554 45.5477 109.742 45.6666C109.93 45.7854 110.246 45.7161 110.38 45.6666C110.1 45.6831 109.46 45.5609 109.138 44.9403L108.484 44.3626L108.937 44.5112C108.987 44.5112 109.044 44.4517 108.87 44.2141C108.652 43.917 105.044 41.6391 101.151 42.6295C100.882 42.7505 100.238 43.1445 99.8081 43.7519C99.8752 42.9321 100.684 41.3057 103.382 41.3585C106.081 41.4114 108.344 43.1742 109.138 44.049C109.099 43.8509 108.913 43.3624 108.484 42.9926C107.947 42.5305 102.946 38.9652 99.8081 42.547C100.071 41.6777 101.204 39.9853 103.634 40.1701C106.064 40.355 108.316 42.3489 109.138 43.3227C107.091 40.4067 102.594 35.1886 100.983 37.6447C101.033 37.2541 101.255 36.4035 101.738 36.1262C102.342 35.7796 103.416 35.2514 104.993 37.0175C106.255 38.4304 108.562 41.5896 109.558 42.9926C107.566 39.5429 103.121 33.2905 101.268 35.8786C101.29 35.0093 101.862 33.3433 103.97 33.6338C106.077 33.9243 108.506 39.752 109.457 42.6295C109.474 42.1893 109.434 41.1374 109.138 40.4507C108.769 39.5924 105.514 32.1648 102.51 33.3037C103.164 32.5224 104.779 31.2801 106 32.5609C107.222 33.8418 108.982 38.9597 109.709 41.3585C108.707 37.2266 106.03 29.2795 103.332 30.5472C103.584 30.0905 104.369 29.1871 105.497 29.2267C106.906 29.2762 108.735 31.521 109.239 34.3601C109.642 36.6313 109.821 39.884 109.86 41.2265C109.96 40.8799 110.132 39.9324 110.011 38.9157C109.995 38.7827 109.978 38.5918 109.956 38.3545C109.772 36.3244 109.281 30.8967 106.772 29.2267C107.578 28.9076 109.353 28.9362 110.011 31.6036C110.682 34.3238 110.504 37.1099 110.415 38.492C110.395 38.8039 110.38 39.0443 110.38 39.1963C110.38 39.8565 110.492 40.4397 110.548 40.6488L110.657 41.1852L110.766 40.6488C110.822 40.4397 110.934 39.8565 110.934 39.1963C110.934 39.0443 110.918 38.8039 110.898 38.492C110.81 37.1099 110.632 34.3238 111.303 31.6036C111.961 28.9362 113.736 28.9076 114.542 29.2267C112.032 30.8967 111.541 36.3244 111.357 38.3545C111.336 38.5918 111.319 38.7827 111.303 38.9157C111.182 39.9324 111.353 40.8799 111.454 41.2265C111.493 39.884 111.672 36.6313 112.075 34.3601C112.578 31.521 114.407 29.2762 115.817 29.2267C116.945 29.1871 117.73 30.0905 117.982 30.5472C115.283 29.2795 112.606 37.2266 111.605 41.3585C112.332 38.9597 114.092 33.8418 115.313 32.5609C116.535 31.2801 118.149 32.5224 118.804 33.3037C115.8 32.1648 112.545 39.5924 112.175 40.4507C111.88 41.1374 111.84 42.1893 111.857 42.6295C112.808 39.752 115.236 33.9243 117.344 33.6338C119.452 33.3433 120.023 35.0093 120.046 35.8786C118.193 33.2905 113.747 39.5429 111.756 42.9926C112.752 41.5896 115.058 38.4304 116.32 37.0175C117.898 35.2514 118.972 35.7796 119.576 36.1262C120.059 36.4035 120.281 37.2541 120.331 37.6447C118.72 35.1886 114.223 40.4067 112.175 43.3227C112.998 42.3489 115.25 40.355 117.68 40.1701C120.109 39.9853 121.243 41.6777 121.506 42.547C118.368 38.9652 113.367 42.5305 112.83 42.9926C112.4 43.3624 112.215 43.8509 112.175 44.049C112.97 43.1742 115.233 41.4114 117.931 41.3585C120.63 41.3057 121.438 42.9321 121.506 43.7519C121.076 43.1445 120.432 42.7505 120.163 42.6295C116.27 41.6391 112.662 43.917 112.444 44.2141C112.269 44.4517 112.326 44.5112 112.377 44.5112L112.83 44.3626L112.175 44.9403C111.853 45.5609 111.213 45.6831 110.934 45.6666C111.068 45.7161 111.383 45.7854 111.571 45.6666C111.759 45.5477 111.985 45.353 112.075 45.2704C112.652 44.6894 113.456 44.2141 113.786 44.049C116.82 42.4909 118.72 44.159 119.29 45.1879C116.32 42.9926 112.377 45.2374 112.175 45.6006C112.014 45.8911 111.37 46.0737 111.068 46.1287C111.197 46.1287 111.514 46.1023 111.756 45.9967C111.998 45.8911 112.136 45.7766 112.175 45.7326L112.662 45.6666C112.545 45.7161 112.226 45.8779 111.89 46.1287C111.555 46.3796 111.202 46.4534 111.068 46.4589C111.09 46.4864 111.199 46.5414 111.454 46.5414C111.709 46.5414 112.131 46.3103 112.31 46.1948L112.662 46.0462C112.601 46.1012 112.444 46.241 112.31 46.3598C112.175 46.4787 111.762 46.7615 111.571 46.888C111.622 46.899 111.756 46.9144 111.89 46.888C112.024 46.8616 112.338 46.6459 112.478 46.5414H112.578C112.478 46.6789 112.212 46.9937 111.957 47.1521C111.87 47.2063 111.797 47.221 111.735 47.2333C111.571 47.2659 111.49 47.282 111.454 47.9774C111.414 48.7433 111.616 49.9141 111.722 50.4038C111.589 50.6 110.962 50.6396 110.657 50.635C110.352 50.6396 109.724 50.6 109.591 50.4038Z" fill="url(#paint21_linear_13_28)" stroke="url(#paint22_linear_13_28)" stroke-width="0.2"/>
<defs>
<linearGradient id="paint0_linear_13_28" x1="108.476" y1="10.7734" x2="108.476" y2="23.7016" gradientUnits="userSpaceOnUse">
<stop stop-color="#A07D00"/>
<stop offset="0.484375" stop-color="#FFEF98"/>
<stop offset="1" stop-color="#B1790D"/>
</linearGradient>
<linearGradient id="paint1_linear_13_28" x1="108.476" y1="10.7734" x2="108.476" y2="23.7016" gradientUnits="userSpaceOnUse">
<stop stop-color="#A07D00"/>
<stop offset="0.484375" stop-color="#FFEF98"/>
<stop offset="1" stop-color="#B1790D"/>
</linearGradient>
<linearGradient id="paint2_linear_13_28" x1="108.476" y1="10.7734" x2="108.476" y2="23.7016" gradientUnits="userSpaceOnUse">
<stop stop-color="#A07D00"/>
<stop offset="0.484375" stop-color="#FFEF98"/>
<stop offset="1" stop-color="#B1790D"/>
</linearGradient>
<linearGradient id="paint3_linear_13_28" x1="108.476" y1="10.7734" x2="108.476" y2="23.7016" gradientUnits="userSpaceOnUse">
<stop stop-color="#A07D00"/>
<stop offset="0.484375" stop-color="#FFEF98"/>
<stop offset="1" stop-color="#B1790D"/>
</linearGradient>
<linearGradient id="paint4_linear_13_28" x1="108.476" y1="10.7734" x2="108.476" y2="23.7016" gradientUnits="userSpaceOnUse">
<stop stop-color="#A07D00"/>
<stop offset="0.484375" stop-color="#FFEF98"/>
<stop offset="1" stop-color="#B1790D"/>
</linearGradient>
<linearGradient id="paint5_linear_13_28" x1="108.476" y1="10.7734" x2="108.476" y2="23.7016" gradientUnits="userSpaceOnUse">
<stop stop-color="#A07D00"/>
<stop offset="0.484375" stop-color="#FFEF98"/>
<stop offset="1" stop-color="#B1790D"/>
</linearGradient>
<linearGradient id="paint6_linear_13_28" x1="108.476" y1="10.7734" x2="108.476" y2="23.7016" gradientUnits="userSpaceOnUse">
<stop stop-color="#A07D00"/>
<stop offset="0.484375" stop-color="#FFEF98"/>
<stop offset="1" stop-color="#B1790D"/>
</linearGradient>
<linearGradient id="paint7_linear_13_28" x1="108.476" y1="10.7734" x2="108.476" y2="23.7016" gradientUnits="userSpaceOnUse">
<stop stop-color="#C29800"/>
<stop offset="1" stop-color="#896B00"/>
</linearGradient>
<linearGradient id="paint8_linear_13_28" x1="108.476" y1="10.7734" x2="108.476" y2="23.7016" gradientUnits="userSpaceOnUse">
<stop stop-color="#C29800"/>
<stop offset="1" stop-color="#896B00"/>
</linearGradient>
<linearGradient id="paint9_linear_13_28" x1="108.476" y1="10.7734" x2="108.476" y2="23.7016" gradientUnits="userSpaceOnUse">
<stop stop-color="#C29800"/>
<stop offset="1" stop-color="#896B00"/>
</linearGradient>
<linearGradient id="paint10_linear_13_28" x1="108.476" y1="10.7734" x2="108.476" y2="23.7016" gradientUnits="userSpaceOnUse">
<stop stop-color="#C29800"/>
<stop offset="1" stop-color="#896B00"/>
</linearGradient>
<linearGradient id="paint11_linear_13_28" x1="108.476" y1="10.7734" x2="108.476" y2="23.7016" gradientUnits="userSpaceOnUse">
<stop stop-color="#C29800"/>
<stop offset="1" stop-color="#896B00"/>
</linearGradient>
<linearGradient id="paint12_linear_13_28" x1="108.476" y1="10.7734" x2="108.476" y2="23.7016" gradientUnits="userSpaceOnUse">
<stop stop-color="#C29800"/>
<stop offset="1" stop-color="#896B00"/>
</linearGradient>
<linearGradient id="paint13_linear_13_28" x1="108.476" y1="10.7734" x2="108.476" y2="23.7016" gradientUnits="userSpaceOnUse">
<stop stop-color="#C29800"/>
<stop offset="1" stop-color="#896B00"/>
</linearGradient>
<linearGradient id="paint14_linear_13_28" x1="111.38" y1="10.953" x2="111.38" y2="65" gradientUnits="userSpaceOnUse">
<stop stop-color="#BE9207"/>
<stop offset="0.5" stop-color="#FFF2CB"/>
<stop offset="1" stop-color="#916E00"/>
</linearGradient>
<linearGradient id="paint15_linear_13_28" x1="111.38" y1="10.953" x2="111.38" y2="65" gradientUnits="userSpaceOnUse">
<stop stop-color="#775D00"/>
<stop offset="0.489583" stop-color="#B6A055"/>
<stop offset="1" stop-color="#B48949"/>
</linearGradient>
<linearGradient id="paint16_linear_13_28" x1="111.38" y1="26.5746" x2="111.38" y2="51.7128" gradientUnits="userSpaceOnUse">
<stop stop-color="#083900"/>
<stop offset="0.526042" stop-color="white"/>
<stop offset="1" stop-color="#062C00"/>
</linearGradient>
<linearGradient id="paint17_linear_13_28" x1="111.38" y1="14.3646" x2="111.38" y2="61.7679" gradientUnits="userSpaceOnUse">
<stop stop-color="#3D591B"/>
<stop offset="1" stop-color="#59A200"/>
</linearGradient>
<linearGradient id="paint18_linear_13_28" x1="111.38" y1="26.5746" x2="111.38" y2="51.7127" gradientUnits="userSpaceOnUse">
<stop stop-color="#3D650D"/>
<stop offset="0.5" stop-color="#64B106"/>
<stop offset="1" stop-color="#529500"/>
</linearGradient>
<linearGradient id="paint19_linear_13_28" x1="98" y1="7.90051" x2="98" y2="23.7016" gradientUnits="userSpaceOnUse">
<stop stop-color="#CEB148"/>
<stop offset="0.484375" stop-color="#FFEF98"/>
<stop offset="1" stop-color="#B1790D"/>
</linearGradient>
<linearGradient id="paint20_linear_13_28" x1="98" y1="7.90051" x2="98" y2="23.7016" gradientUnits="userSpaceOnUse">
<stop stop-color="#766320"/>
<stop offset="1" stop-color="#D8A800"/>
</linearGradient>
<linearGradient id="paint21_linear_13_28" x1="110.657" y1="29.0884" x2="110.657" y2="50.6353" gradientUnits="userSpaceOnUse">
<stop stop-color="#FFD600"/>
<stop offset="0.5" stop-color="#F5EEC9"/>
<stop offset="1" stop-color="#B88400"/>
</linearGradient>
<linearGradient id="paint22_linear_13_28" x1="110.657" y1="29.0884" x2="110.657" y2="50.6353" gradientUnits="userSpaceOnUse">
<stop stop-color="#745300"/>
<stop offset="0.489583" stop-color="white"/>
<stop offset="1" stop-color="#5A4600"/>
</linearGradient>
</defs>
</svg>
