<svg width="48" height="48" viewBox="0 0 48 48" fill="none" xmlns="http://www.w3.org/2000/svg">
<circle cx="24" cy="24" r="24" fill="#83A11C"/>
<path d="M23.3705 34.7528C23.4831 34.2301 23.6978 32.9803 23.6551 32.1628C23.6163 31.4206 23.5306 31.4034 23.3571 31.3685C23.2917 31.3554 23.2139 31.3397 23.1214 31.2819C22.851 31.1127 22.57 30.7768 22.4633 30.63H22.57C22.7182 30.7416 23.0503 30.9718 23.1926 31C23.3349 31.0282 23.4772 31.0117 23.5305 31C23.329 30.8649 22.8902 30.563 22.7479 30.4362C22.6056 30.3093 22.4395 30.1601 22.3743 30.1014L22.7479 30.26C22.9376 30.3833 23.3847 30.63 23.6551 30.63C23.9254 30.63 24.0405 30.5712 24.0642 30.5419C23.9219 30.536 23.5483 30.4573 23.1926 30.1895C22.8368 29.9217 22.4988 29.749 22.3743 29.6962L22.8902 29.7666C22.9317 29.8136 23.0787 29.9358 23.3349 30.0485C23.591 30.1613 23.9278 30.1895 24.0642 30.1895C23.744 30.1308 23.0609 29.9358 22.8902 29.6257C22.6767 29.2381 18.4965 26.8419 15.348 29.1852C15.9528 28.087 17.9664 26.3063 21.1825 27.9695C21.5324 28.1457 22.385 28.6531 22.9969 29.2733C23.0918 29.3614 23.3313 29.5693 23.5305 29.6962C23.7298 29.823 24.0642 29.749 24.2065 29.6962C23.91 29.7138 23.2317 29.5834 22.8902 28.9209L22.1964 28.3043L22.6767 28.4628C22.7301 28.4628 22.7906 28.3994 22.6056 28.1457C22.3743 27.8286 18.5499 25.3971 14.423 26.4543C14.1384 26.5835 13.4554 27.004 13 27.6524C13.0712 26.7773 13.9285 25.0412 16.7889 25.0976C19.6492 25.154 22.0482 27.0357 22.8902 27.9695C22.8487 27.7581 22.6518 27.2366 22.1964 26.8419C21.6272 26.3486 16.3264 22.5429 13 26.3662C13.2787 25.4382 14.48 23.6317 17.0557 23.829C19.6314 24.0264 22.0186 26.1548 22.8902 27.1943C20.72 24.0816 15.9528 18.5116 14.2452 21.1333C14.2985 20.7164 14.5333 19.8084 15.0456 19.5124C15.686 19.1424 16.8244 18.5786 18.4965 20.4638C19.8342 21.972 22.2795 25.3443 23.3349 26.8419C21.224 23.1595 16.5114 16.4855 14.5476 19.2481C14.5713 18.3202 15.1773 16.5418 17.4114 16.8519C19.6456 17.162 22.2202 23.3827 23.2282 26.4543C23.2459 25.9844 23.2032 24.8615 22.8902 24.1286C22.4988 23.2124 19.048 15.2838 15.8639 16.4996C16.5576 15.6656 18.2688 14.3395 19.5638 15.7067C20.8588 17.0739 22.7242 22.537 23.495 25.0976C22.4336 20.687 19.5958 12.2041 16.7355 13.5572C17.0023 13.0697 17.8348 12.1054 19.0302 12.1477C20.5244 12.2005 22.4633 14.5967 22.9969 17.6272C23.4238 20.0515 23.6136 23.5237 23.6551 24.9567C23.7618 24.5867 23.9432 23.5753 23.8152 22.49C23.7984 22.348 23.7801 22.1443 23.7573 21.891C23.5625 19.724 23.0418 13.9302 20.3821 12.1477C21.2359 11.807 23.1179 11.8376 23.8152 14.6848C24.5263 17.5885 24.3375 20.5625 24.2439 22.0377C24.2228 22.3707 24.2065 22.6273 24.2065 22.7895C24.2065 23.4943 24.3251 24.1168 24.3844 24.34L24.5 24.9126L24.6156 24.34C24.6749 24.1168 24.7935 23.4943 24.7935 22.7895C24.7935 22.6273 24.7772 22.3707 24.7561 22.0377C24.6625 20.5625 24.4737 17.5885 25.1848 14.6848C25.8821 11.8376 27.7641 11.807 28.6179 12.1477C25.9582 13.9302 25.4375 19.724 25.2427 21.891C25.2199 22.1443 25.2016 22.348 25.1848 22.49C25.0568 23.5753 25.2382 24.5867 25.3449 24.9567C25.3864 23.5237 25.5762 20.0515 26.0031 17.6272C26.5367 14.5967 28.4756 12.2005 29.9698 12.1477C31.1652 12.1054 31.9977 13.0697 32.2645 13.5572C29.4042 12.2041 26.5664 20.687 25.505 25.0976C26.2758 22.537 28.1412 17.0739 29.4362 15.7067C30.7312 14.3395 32.4424 15.6656 33.1361 16.4996C29.952 15.2838 26.5012 23.2124 26.1098 24.1286C25.7968 24.8615 25.7541 25.9844 25.7718 26.4543C26.7798 23.3827 29.3544 17.162 31.5886 16.8519C33.8227 16.5418 34.4287 18.3202 34.4524 19.2481C32.4886 16.4855 27.776 23.1595 25.6651 26.8419C26.7205 25.3443 29.1658 21.972 30.5035 20.4638C32.1756 18.5786 33.314 19.1424 33.9544 19.5124C34.4667 19.8084 34.7015 20.7164 34.7548 21.1333C33.0472 18.5116 28.28 24.0816 26.1098 27.1943C26.9814 26.1548 29.3686 24.0264 31.9443 23.829C34.52 23.6317 35.7213 25.4382 36 26.3662C32.6736 22.5429 27.3728 26.3486 26.8036 26.8419C26.3482 27.2366 26.1513 27.7581 26.1098 27.9695C26.9518 27.0357 29.3508 25.154 32.2111 25.0976C35.0715 25.0412 35.9288 26.7773 36 27.6524C35.5446 27.004 34.8616 26.5835 34.577 26.4543C30.4501 25.3971 26.6257 27.8286 26.3944 28.1457C26.2094 28.3994 26.2699 28.4628 26.3233 28.4628L26.8036 28.3043L26.1098 28.9209C25.7683 29.5834 25.09 29.7138 24.7935 29.6962C24.9358 29.749 25.2702 29.823 25.4695 29.6962C25.6687 29.5693 25.9082 29.3614 26.0031 29.2733C26.615 28.6531 27.4676 28.1457 27.8175 27.9695C31.0336 26.3063 33.0472 28.087 33.652 29.1852C30.5035 26.8419 26.3233 29.2381 26.1098 29.6257C25.9391 29.9358 25.256 30.1308 24.9358 30.1895C25.0722 30.1895 25.409 30.1613 25.6651 30.0485C25.9213 29.9358 26.0683 29.8136 26.1098 29.7666L26.6257 29.6962C26.5012 29.749 26.1632 29.9217 25.8074 30.1895C25.4517 30.4573 25.0781 30.536 24.9358 30.5419C24.9595 30.5712 25.0746 30.63 25.3449 30.63C25.6153 30.63 26.0624 30.3833 26.2521 30.26L26.6257 30.1014C26.5605 30.1601 26.3944 30.3093 26.2521 30.4362C26.1098 30.563 25.671 30.8649 25.4695 31C25.5228 31.0117 25.6651 31.0282 25.8074 31C25.9497 30.9718 26.2818 30.7416 26.43 30.63H26.5367C26.43 30.7768 26.149 31.1127 25.8786 31.2819C25.7861 31.3397 25.7083 31.3554 25.6429 31.3685C25.4694 31.4034 25.3837 31.4206 25.3449 32.1628C25.3022 32.9803 25.5169 34.2301 25.6295 34.7528C25.4885 34.9623 24.8236 35.0046 24.5 34.9996C24.1764 35.0046 23.5115 34.9623 23.3705 34.7528Z" fill="#F5F5F5"/>
</svg>
