<svg width="499" height="172" viewBox="0 0 499 172" fill="none" xmlns="http://www.w3.org/2000/svg">
<g filter="url(#filter0_d_29_316)">
<path d="M282.664 33.7405C283.108 34.6917 283.33 35.9826 283.33 37.6133H288.251C288.251 36.4175 288.148 35.3304 287.943 34.352C287.738 33.3736 287.371 32.4972 286.841 31.7226C286.328 30.9481 285.628 30.2754 284.74 29.7047C283.868 29.134 282.766 28.6652 281.433 28.2983C280.101 27.9178 278.512 27.6393 276.666 27.4626C274.821 27.2724 272.668 27.1772 270.208 27.1772H257.035C254.027 27.1772 251.49 27.3267 249.423 27.6257C247.372 27.911 245.681 28.3527 244.348 28.9506C243.016 29.5349 241.982 30.2754 241.247 31.1723C240.53 32.0691 240 33.1222 239.658 34.3316C239.333 35.541 239.146 36.9067 239.094 38.4286C239.043 39.9505 239.017 41.6355 239.017 43.4835C239.017 45.3316 239.043 47.0165 239.094 48.5385C239.146 50.0604 239.333 51.426 239.658 52.6354C240 53.8448 240.53 54.8979 241.247 55.7948C241.982 56.6916 243.016 57.439 244.348 58.0369C245.681 58.6212 247.372 59.056 249.423 59.3414C251.49 59.6403 254.027 59.7898 257.035 59.7898H270.234C272.694 59.7898 274.847 59.6947 276.692 59.5044C278.537 59.3278 280.126 59.0492 281.459 58.6687C282.792 58.2747 283.894 57.7787 284.765 57.1808C285.637 56.5829 286.328 55.8763 286.841 55.061C287.371 54.2321 287.738 53.2945 287.943 52.2481C288.148 51.1882 288.251 50.006 288.251 48.7015V43.4835H263.596V46.7448H283.33V48.7015C283.33 49.7886 283.27 50.7398 283.15 51.5551C283.031 52.3568 282.8 53.0499 282.459 53.6342C282.134 54.2049 281.673 54.6805 281.075 55.061C280.477 55.4415 279.691 55.7404 278.717 55.9578C277.743 56.1752 276.564 56.3247 275.18 56.4062C273.796 56.4878 272.147 56.5285 270.234 56.5285H257.035C254.848 56.5285 253.002 56.481 251.499 56.3859C250.012 56.2771 248.782 56.0665 247.808 55.754C246.834 55.4415 246.082 54.993 245.553 54.4087C245.04 53.8244 244.664 53.0499 244.425 52.0851C244.186 51.1203 244.041 49.9381 243.989 48.5385C243.955 47.1253 243.938 45.4403 243.938 43.4835C243.938 41.5268 243.955 39.8486 243.989 38.449C244.024 37.0357 244.16 35.8467 244.399 34.882C244.639 33.9172 245.023 33.1426 245.553 32.5583C246.082 31.974 246.834 31.5256 247.808 31.213C248.782 30.9005 250.012 30.6967 251.499 30.6016C253.002 30.4929 254.848 30.4385 257.035 30.4385H270.208C272.668 30.4385 274.736 30.5064 276.41 30.6423C278.085 30.7782 279.434 31.0908 280.459 31.5799C281.485 32.0691 282.219 32.7893 282.664 33.7405Z" fill="white"/>
<path fill-rule="evenodd" clip-rule="evenodd" d="M96.674 59.7898H101.595V53.2673C101.595 52.1258 101.518 51.1067 101.364 50.2099C101.227 49.313 100.937 48.5385 100.493 47.8862C100.049 47.234 99.4163 46.704 98.5962 46.2964C97.7761 45.8887 96.6826 45.6033 95.3157 45.4403C96.6826 45.2772 97.8188 44.9918 98.7244 44.5842C99.6299 44.1629 100.356 43.6058 100.903 42.9128C101.45 42.2198 101.834 41.3841 102.056 40.4057C102.295 39.4137 102.415 38.2655 102.415 36.961C102.415 35.9419 102.381 35.0111 102.312 34.1686C102.261 33.3261 102.065 32.5651 101.723 31.8857C101.398 31.2063 100.869 30.6152 100.134 30.1124C99.4163 29.6096 98.3826 29.1884 97.0328 28.8486C95.7001 28.5089 94.0001 28.2575 91.9327 28.0945C89.8824 27.9178 87.3536 27.8295 84.3465 27.8295H56.4878L56.5426 59.7898H61.4086V46.7448H83.5264C85.7134 46.7448 87.5501 46.7787 89.0366 46.8467C90.5402 46.901 91.7789 47.0098 92.7528 47.1728C93.7267 47.3359 94.4785 47.5669 95.0082 47.8658C95.5378 48.1648 95.9222 48.5588 96.1615 49.048C96.4177 49.5372 96.563 50.1283 96.5971 50.8213C96.6484 51.5008 96.674 52.3161 96.674 53.2673V59.7898ZM84.3465 43.4835H61.4086V31.0908H84.3465C86.5335 31.0908 88.3702 31.1111 89.8567 31.1519C91.3603 31.1927 92.599 31.2878 93.5729 31.4373C94.5468 31.5731 95.2986 31.7702 95.8283 32.0284C96.3579 32.2865 96.7424 32.6331 96.9816 33.0679C97.2379 33.5027 97.3831 34.0395 97.4173 34.6781C97.4685 35.3168 97.4942 36.0778 97.4942 36.961C97.4942 37.9122 97.4685 38.7343 97.4173 39.4273C97.3831 40.1068 97.2379 40.6911 96.9816 41.1803C96.7424 41.6694 96.3579 42.0635 95.8283 42.3625C95.2986 42.6614 94.5468 42.8924 93.5729 43.0555C92.599 43.2185 91.3603 43.334 89.8567 43.402C88.3702 43.4563 86.5335 43.4835 84.3465 43.4835Z" fill="white"/>
<path d="M110.616 27.8295H115.537V59.7898H110.616V27.8295Z" fill="white"/>
<path d="M186.068 59.7898H181.147V27.8295H189.784L225.87 55.224V27.8295H230.79V59.7898H224.135L186.068 31.0908V59.7898Z" fill="white"/>
<path d="M342.43 27.8295V43.4835C342.43 45.3316 342.396 47.0165 342.328 48.5385C342.277 50.0604 342.08 51.426 341.738 52.6354C341.414 53.8448 340.893 54.8979 340.175 55.7948C339.457 56.6916 338.432 57.439 337.099 58.0369C335.767 58.6212 334.067 59.056 331.999 59.3414C329.949 59.6403 327.42 59.7898 324.413 59.7898H312.88C309.873 59.7898 307.336 59.6403 305.268 59.3414C303.218 59.056 301.526 58.6212 300.194 58.0369C298.861 57.439 297.827 56.6916 297.093 55.7948C296.375 54.8979 295.845 53.8448 295.504 52.6354C295.179 51.426 294.991 50.0604 294.94 48.5385C294.889 47.0165 294.863 45.3316 294.863 43.4835V27.8295H299.784V43.4835C299.784 45.4403 299.801 47.1253 299.835 48.5385C299.886 49.9381 300.031 51.1203 300.271 52.0851C300.51 53.0499 300.886 53.8244 301.398 54.4087C301.928 54.993 302.68 55.4415 303.654 55.754C304.628 56.0665 305.858 56.2771 307.344 56.3859C308.848 56.481 310.693 56.5285 312.88 56.5285H324.413C326.583 56.5285 328.42 56.481 329.923 56.3859C331.427 56.2771 332.657 56.0665 333.614 55.754C334.588 55.4415 335.34 54.993 335.869 54.4087C336.399 53.8244 336.783 53.0499 337.023 52.0851C337.279 51.1203 337.424 49.9381 337.458 48.5385C337.492 47.1253 337.51 45.4403 337.51 43.4835L337.484 27.8295H342.43Z" fill="white"/>
<path d="M355.578 27.8295H350.657V59.7898H386.743V55.8763H355.578V27.8295Z" fill="white"/>
<path fill-rule="evenodd" clip-rule="evenodd" d="M489.259 59.7898H494.18V53.2673C494.18 52.1258 494.103 51.1067 493.949 50.2099C493.812 49.313 493.522 48.5385 493.077 47.8862C492.633 47.234 492.001 46.704 491.181 46.2964C490.361 45.8887 489.267 45.6033 487.9 45.4403C489.267 45.2772 490.404 44.9918 491.309 44.5842C492.215 44.1629 492.941 43.6058 493.488 42.9128C494.034 42.2198 494.419 41.3841 494.641 40.4057C494.88 39.4137 495 38.2655 495 36.961C495 35.9419 494.965 35.0111 494.897 34.1686C494.846 33.3261 494.649 32.5651 494.308 31.8857C493.983 31.2063 493.453 30.6152 492.719 30.1124C492.001 29.6096 490.967 29.1884 489.618 28.8486C488.285 28.5089 486.585 28.2575 484.517 28.0945C482.467 27.9178 479.938 27.8295 476.931 27.8295H449.073V59.7898H453.993V46.7448H476.111C478.298 46.7448 480.135 46.7787 481.621 46.8467C483.125 46.901 484.364 47.0098 485.338 47.1728C486.311 47.3359 487.063 47.5669 487.593 47.8658C488.123 48.1648 488.507 48.5588 488.746 49.048C489.002 49.5372 489.148 50.1283 489.182 50.8213C489.233 51.5008 489.259 52.3161 489.259 53.2673V59.7898ZM476.931 43.4835H453.993V31.0908H476.931C479.118 31.0908 480.955 31.1111 482.441 31.1519C483.945 31.1927 485.184 31.2878 486.158 31.4373C487.132 31.5731 487.883 31.7702 488.413 32.0284C488.943 32.2865 489.327 32.6331 489.566 33.0679C489.823 33.5027 489.968 34.0395 490.002 34.6781C490.053 35.3168 490.079 36.0778 490.079 36.961C490.079 37.9122 490.053 38.7343 490.002 39.4273C489.968 40.1068 489.823 40.6911 489.566 41.1803C489.327 41.6694 488.943 42.0635 488.413 42.3625C487.883 42.6614 487.132 42.8924 486.158 43.0555C485.184 43.2185 483.945 43.334 482.441 43.402C480.955 43.4563 479.118 43.4835 476.931 43.4835Z" fill="white"/>
<path d="M48.2869 23.5533V19.9297H4V23.5533H23.6831V59.7895H28.6038V23.5533H48.2869Z" fill="white"/>
<path d="M127.203 67.0367L132.554 58.006L135.016 53.9011L136.828 50.7304L139.886 45.295H139.934L148.152 30.9138L161.288 53.9011L163.751 58.006L168.875 67.0367H174.31L151.436 27.6299H144.868L121.881 67.0367H127.203Z" fill="white"/>
<path d="M397.162 67.0367L402.399 58.006L404.862 53.9011L406.674 50.7304L409.731 45.295H409.78L417.998 30.9138L431.133 53.9011L433.596 58.006L438.834 67.0367H444.269L421.282 27.6299H414.714L391.727 67.0367H397.162Z" fill="white"/>
<path d="M348.244 0.253021H357.471C358.233 0.253021 358.876 0.287284 359.398 0.35581C359.926 0.419065 360.36 0.516584 360.701 0.648365C361.042 0.780147 361.304 0.943556 361.485 1.13859C361.671 1.33363 361.807 1.56293 361.893 1.82649C361.978 2.09006 362.026 2.38525 362.037 2.71206C362.053 3.03888 362.061 3.39996 362.061 3.79531C362.061 4.20647 362.05 4.586 362.029 4.9339C362.013 5.2818 361.951 5.59808 361.845 5.88273C361.743 6.16211 361.578 6.40985 361.349 6.62598C361.125 6.83683 360.803 7.01341 360.381 7.15574C359.966 7.29806 359.435 7.40612 358.79 7.47992C358.151 7.55372 357.362 7.59062 356.423 7.59062H349.779V12.398H348.244V0.253021ZM349.779 6.32551H356.423C357.106 6.32551 357.679 6.31497 358.143 6.29389C358.612 6.26753 358.998 6.22272 359.302 6.15947C359.606 6.09621 359.84 6.0066 360.006 5.89064C360.171 5.77467 360.291 5.6218 360.365 5.43204C360.445 5.24227 360.491 5.01561 360.501 4.75204C360.517 4.48321 360.525 4.1643 360.525 3.79531C360.525 3.45268 360.517 3.15749 360.501 2.90974C360.491 2.66199 360.445 2.45377 360.365 2.28509C360.291 2.11641 360.171 1.98199 360.006 1.88184C359.84 1.78169 359.606 1.70525 359.302 1.65254C358.998 1.59456 358.612 1.55766 358.143 1.54184C357.679 1.52603 357.106 1.51812 356.423 1.51812H349.779V6.32551Z" fill="white"/>
<path d="M376.133 9.61478H366.41L364.875 12.398H363.084L370.248 0.253021H372.295L379.46 12.398H377.669L376.133 9.61478ZM375.366 8.34968L371.272 1.2651L367.178 8.34968H375.366Z" fill="white"/>
<path d="M381.507 0.253021H383.042V12.398H381.507V0.253021Z" fill="white"/>
<path d="M393.852 5.56645C394.694 5.56645 395.417 5.60072 396.019 5.66924C396.621 5.73777 397.128 5.84056 397.538 5.97761C397.954 6.10939 398.285 6.27544 398.53 6.47575C398.775 6.67605 398.964 6.90535 399.097 7.16365C399.231 7.41667 399.316 7.70131 399.353 8.01759C399.396 8.33387 399.417 8.6765 399.417 9.04549C399.417 9.41447 399.383 9.76238 399.313 10.0892C399.249 10.4107 399.132 10.7059 398.962 10.9748C398.791 11.2436 398.559 11.4834 398.266 11.6943C397.973 11.9051 397.6 12.0844 397.146 12.232C396.693 12.3796 396.147 12.4903 395.507 12.5641C394.873 12.6431 394.129 12.6827 393.276 12.6827H391.23C390.462 12.6827 389.79 12.6537 389.215 12.5957C388.639 12.5377 388.143 12.4507 387.727 12.3348C387.312 12.2135 386.968 12.0633 386.696 11.8841C386.424 11.6996 386.205 11.4861 386.04 11.2436C385.88 10.9959 385.768 10.7165 385.704 10.4055C385.64 10.0892 385.608 9.74129 385.608 9.36176H387.144C387.144 9.83617 387.213 10.2078 387.352 10.4766C387.49 10.7455 387.719 10.9484 388.039 11.0855C388.359 11.2172 388.777 11.3016 389.295 11.3385C389.817 11.3701 390.462 11.3859 391.23 11.3859H393.276C394.172 11.3859 394.916 11.3438 395.507 11.2594C396.099 11.1751 396.571 11.0407 396.923 10.8562C397.274 10.6717 397.522 10.4318 397.666 10.1366C397.81 9.83617 397.882 9.47246 397.882 9.04549C397.882 8.61851 397.831 8.2627 397.73 7.97806C397.634 7.69341 397.44 7.46674 397.146 7.29806C396.859 7.12938 396.451 7.01078 395.923 6.94225C395.395 6.86845 394.705 6.83156 393.852 6.83156H391.741C390.803 6.83156 389.998 6.79729 389.327 6.72877C388.66 6.66024 388.1 6.56272 387.647 6.43621C387.194 6.30443 386.832 6.14366 386.56 5.95389C386.288 5.75885 386.08 5.53746 385.936 5.28971C385.798 5.04196 385.707 4.76786 385.664 4.46739C385.622 4.16166 385.6 3.83221 385.6 3.47903C385.6 3.11004 385.632 2.76741 385.696 2.45114C385.766 2.13486 385.891 1.85021 386.072 1.59719C386.253 1.3389 386.501 1.1096 386.816 0.909293C387.13 0.708985 387.533 0.54294 388.023 0.411158C388.519 0.274106 389.113 0.171316 389.806 0.10279C390.499 0.0342632 391.315 0 392.253 0H393.788C394.556 0 395.227 0.0289919 395.803 0.0869758C396.379 0.139688 396.875 0.226664 397.29 0.347903C397.706 0.463871 398.05 0.611466 398.322 0.790689C398.599 0.964641 398.818 1.17549 398.978 1.42324C399.143 1.66572 399.257 1.94246 399.321 2.25346C399.385 2.56447 399.417 2.90974 399.417 3.28927H397.882C397.882 2.81485 397.813 2.44323 397.674 2.1744C397.536 1.90556 397.306 1.70525 396.987 1.57347C396.667 1.43642 396.246 1.35208 395.723 1.32045C395.201 1.28355 394.556 1.2651 393.788 1.2651H392.253C391.23 1.2651 390.387 1.302 389.726 1.3758C389.065 1.44433 388.543 1.56293 388.159 1.73161C387.775 1.90029 387.509 2.12695 387.36 2.4116C387.21 2.69625 387.136 3.05206 387.136 3.47903C387.136 3.7426 387.154 3.97717 387.192 4.18275C387.229 4.38833 387.304 4.57018 387.415 4.72832C387.533 4.88119 387.695 5.01033 387.903 5.11576C388.111 5.22119 388.386 5.30816 388.727 5.37669C389.068 5.44521 389.484 5.49529 389.974 5.52692C390.47 5.55327 391.059 5.56645 391.741 5.56645H393.852Z" fill="white"/>
<path d="M414.002 9.61478H404.279L402.744 12.398H400.953L408.117 0.253021H410.164L417.328 12.398H415.537L414.002 9.61478ZM413.234 8.34968L409.14 1.2651L405.046 8.34968H413.234Z" fill="white"/>
<path d="M432.688 4.04833C432.688 3.41578 432.619 2.91501 432.48 2.54602C432.342 2.17703 432.112 1.89765 431.793 1.70789C431.473 1.51812 431.052 1.39688 430.529 1.34417C430.007 1.29146 429.362 1.2651 428.594 1.2651H424.484C423.802 1.2651 423.226 1.28619 422.757 1.32836C422.294 1.36526 421.91 1.44433 421.606 1.56556C421.302 1.6868 421.067 1.86076 420.902 2.08742C420.737 2.31408 420.617 2.61455 420.542 2.98881C420.468 3.36307 420.425 3.8243 420.414 4.37251C420.404 4.91545 420.399 5.56645 420.399 6.32551C420.399 7.08458 420.404 7.73821 420.414 8.28642C420.43 8.82936 420.476 9.28796 420.55 9.66222C420.625 10.0365 420.742 10.3369 420.902 10.5636C421.067 10.7903 421.302 10.9642 421.606 11.0855C421.91 11.2067 422.294 11.2884 422.757 11.3306C423.226 11.3675 423.802 11.3859 424.484 11.3859H428.602C429.199 11.3859 429.714 11.3701 430.145 11.3385C430.577 11.3069 430.945 11.2489 431.249 11.1645C431.553 11.0802 431.798 10.9642 431.985 10.8166C432.171 10.669 432.315 10.4845 432.416 10.2631C432.523 10.0365 432.595 9.76765 432.632 9.45664C432.67 9.14037 432.688 8.77138 432.688 8.34968V7.59062H426.531V6.32551H434.223V8.34968C434.223 8.85572 434.191 9.31432 434.127 9.72548C434.063 10.1314 433.949 10.4951 433.784 10.8166C433.624 11.1329 433.408 11.407 433.136 11.6389C432.864 11.8709 432.52 12.0633 432.104 12.2162C431.689 12.3637 431.193 12.4718 430.617 12.5403C430.042 12.6141 429.37 12.651 428.602 12.651H424.484C423.546 12.651 422.755 12.593 422.11 12.4771C421.47 12.3664 420.942 12.1977 420.526 11.971C420.111 11.7391 419.788 11.4492 419.559 11.1013C419.335 10.7534 419.17 10.3449 419.063 9.87571C418.962 9.40657 418.903 8.87681 418.887 8.28642C418.871 7.69604 418.863 7.04241 418.863 6.32551C418.863 5.60862 418.871 4.95499 418.887 4.3646C418.903 3.77422 418.962 3.24446 419.063 2.77532C419.17 2.30618 419.335 1.89765 419.559 1.54975C419.788 1.20185 420.111 0.914564 420.526 0.6879C420.942 0.455964 421.47 0.284648 422.11 0.173952C422.755 0.0579839 423.546 0 424.484 0H428.594C429.362 0 430.034 0.0368988 430.609 0.110697C431.185 0.179223 431.681 0.287284 432.096 0.434879C432.512 0.577203 432.856 0.759062 433.128 0.980455C433.405 1.20185 433.624 1.46278 433.784 1.76324C433.949 2.0637 434.063 2.4037 434.127 2.78323C434.191 3.16276 434.223 3.58446 434.223 4.04833H432.688Z" fill="white"/>
<path d="M436.79 0.253021H438.325V12.398H436.79V0.253021Z" fill="white"/>
<path d="M449.136 5.56645C449.978 5.56645 450.7 5.60072 451.303 5.66924C451.905 5.73777 452.411 5.84056 452.822 5.97761C453.238 6.10939 453.568 6.27544 453.813 6.47575C454.059 6.67605 454.248 6.90535 454.381 7.16365C454.514 7.41667 454.6 7.70131 454.637 8.01759C454.68 8.33387 454.701 8.6765 454.701 9.04549C454.701 9.41447 454.666 9.76238 454.597 10.0892C454.533 10.4107 454.416 10.7059 454.245 10.9748C454.075 11.2436 453.843 11.4834 453.549 11.6943C453.256 11.9051 452.883 12.0844 452.43 12.232C451.977 12.3796 451.431 12.4903 450.791 12.5641C450.157 12.6431 449.413 12.6827 448.56 12.6827H446.513C445.745 12.6827 445.074 12.6537 444.498 12.5957C443.922 12.5377 443.427 12.4507 443.011 12.3348C442.595 12.2135 442.251 12.0633 441.979 11.8841C441.708 11.6996 441.489 11.4861 441.324 11.2436C441.164 10.9959 441.052 10.7165 440.988 10.4055C440.924 10.0892 440.892 9.74129 440.892 9.36176H442.427C442.427 9.83617 442.496 10.2078 442.635 10.4766C442.774 10.7455 443.003 10.9484 443.323 11.0855C443.643 11.2172 444.061 11.3016 444.578 11.3385C445.1 11.3701 445.745 11.3859 446.513 11.3859H448.56C449.456 11.3859 450.199 11.3438 450.791 11.2594C451.383 11.1751 451.854 11.0407 452.206 10.8562C452.558 10.6717 452.806 10.4318 452.95 10.1366C453.094 9.83617 453.166 9.47246 453.166 9.04549C453.166 8.61851 453.115 8.2627 453.014 7.97806C452.918 7.69341 452.723 7.46674 452.43 7.29806C452.142 7.12938 451.734 7.01078 451.207 6.94225C450.679 6.86845 449.989 6.83156 449.136 6.83156H447.025C446.087 6.83156 445.282 6.79729 444.61 6.72877C443.944 6.66024 443.384 6.56272 442.931 6.43621C442.478 6.30443 442.115 6.14366 441.843 5.95389C441.572 5.75885 441.364 5.53746 441.22 5.28971C441.081 5.04196 440.991 4.76786 440.948 4.46739C440.905 4.16166 440.884 3.83221 440.884 3.47903C440.884 3.11004 440.916 2.76741 440.98 2.45114C441.049 2.13486 441.174 1.85021 441.356 1.59719C441.537 1.3389 441.785 1.1096 442.099 0.909293C442.414 0.708985 442.816 0.54294 443.307 0.411158C443.802 0.274106 444.397 0.171316 445.09 0.10279C445.783 0.0342632 446.598 0 447.537 0H449.072C449.839 0 450.511 0.0289919 451.087 0.0869758C451.662 0.139688 452.158 0.226664 452.574 0.347903C452.99 0.463871 453.334 0.611466 453.605 0.790689C453.883 0.964641 454.101 1.17549 454.261 1.42324C454.426 1.66572 454.541 1.94246 454.605 2.25346C454.669 2.56447 454.701 2.90974 454.701 3.28927H453.166C453.166 2.81485 453.096 2.44323 452.958 2.1744C452.819 1.90556 452.59 1.70525 452.27 1.57347C451.95 1.43642 451.529 1.35208 451.007 1.32045C450.484 1.28355 449.839 1.2651 449.072 1.2651H447.537C446.513 1.2651 445.671 1.302 445.01 1.3758C444.349 1.44433 443.826 1.56293 443.443 1.73161C443.059 1.90029 442.792 2.12695 442.643 2.4116C442.494 2.69625 442.419 3.05206 442.419 3.47903C442.419 3.7426 442.438 3.97717 442.475 4.18275C442.512 4.38833 442.587 4.57018 442.699 4.72832C442.816 4.88119 442.979 5.01033 443.187 5.11576C443.395 5.22119 443.669 5.30816 444.01 5.37669C444.352 5.44521 444.767 5.49529 445.258 5.52692C445.753 5.55327 446.342 5.56645 447.025 5.56645H449.136Z" fill="white"/>
<path d="M458.795 1.2651V12.398H457.26V0.253021H459.818L466.975 10.8799L474.131 0.253021H476.578V12.398H475.042V1.43115L467.75 12.398H466.199L458.795 1.2651Z" fill="white"/>
<path d="M489.379 0C490.317 0 491.106 0.0579839 491.746 0.173952C492.391 0.284648 492.921 0.455964 493.337 0.6879C493.753 0.914564 494.073 1.20185 494.296 1.54975C494.52 1.89765 494.683 2.30618 494.784 2.77532C494.891 3.24446 494.952 3.77422 494.968 4.3646C494.989 4.95499 495 5.60862 495 6.32551C495 7.04241 494.989 7.69604 494.968 8.28642C494.952 8.87681 494.891 9.40657 494.784 9.87571C494.683 10.3449 494.52 10.7534 494.296 11.1013C494.073 11.4492 493.753 11.7391 493.337 11.971C492.921 12.1977 492.391 12.3664 491.746 12.4771C491.106 12.593 490.317 12.651 489.379 12.651H484.757C483.819 12.651 483.028 12.593 482.383 12.4771C481.743 12.3664 481.215 12.1977 480.799 11.971C480.384 11.7391 480.061 11.4492 479.832 11.1013C479.608 10.7534 479.443 10.3449 479.336 9.87571C479.235 9.40657 479.176 8.87681 479.16 8.28642C479.144 7.69604 479.136 7.04241 479.136 6.32551C479.136 5.60862 479.144 4.95499 479.16 4.3646C479.176 3.77422 479.235 3.24446 479.336 2.77532C479.443 2.30618 479.608 1.89765 479.832 1.54975C480.061 1.20185 480.384 0.914564 480.799 0.6879C481.215 0.455964 481.743 0.284648 482.383 0.173952C483.028 0.0579839 483.819 0 484.757 0H489.379ZM489.379 11.3859C490.056 11.3859 490.626 11.3675 491.09 11.3306C491.559 11.2884 491.946 11.2067 492.25 11.0855C492.553 10.9642 492.788 10.7903 492.953 10.5636C493.118 10.3369 493.238 10.0365 493.313 9.66222C493.388 9.28796 493.43 8.82936 493.441 8.28642C493.457 7.73821 493.465 7.08458 493.465 6.32551C493.465 5.56645 493.457 4.91545 493.441 4.37251C493.43 3.8243 493.388 3.36307 493.313 2.98881C493.238 2.61455 493.118 2.31408 492.953 2.08742C492.788 1.86076 492.553 1.6868 492.25 1.56556C491.951 1.44433 491.567 1.36526 491.098 1.32836C490.634 1.28619 490.061 1.2651 489.379 1.2651H484.757C484.075 1.2651 483.499 1.28619 483.03 1.32836C482.567 1.36526 482.183 1.44433 481.879 1.56556C481.575 1.6868 481.34 1.86076 481.175 2.08742C481.01 2.31408 480.89 2.61455 480.815 2.98881C480.741 3.36307 480.698 3.8243 480.687 4.37251C480.677 4.91545 480.671 5.56645 480.671 6.32551C480.671 7.08458 480.677 7.73821 480.687 8.28642C480.703 8.82936 480.749 9.28796 480.823 9.66222C480.898 10.0365 481.015 10.3369 481.175 10.5636C481.34 10.7903 481.575 10.9642 481.879 11.0855C482.183 11.2067 482.567 11.2884 483.03 11.3306C483.499 11.3675 484.075 11.3859 484.757 11.3859H489.379Z" fill="white"/>
<path d="M281.207 163.968L121.768 67.0366H127.203L281.207 159.439L438.834 67.0366H444.269L281.207 163.968Z" fill="white"/>
<path d="M281.207 136.791L168.875 67.0366H174.31L281.207 133.168L391.727 67.0366H397.162L281.207 136.791Z" fill="white"/>
<path d="M130.827 67.0371L148.039 36.2363L165.251 67.0371L281.207 139.509L400.786 67.0371L417.998 36.2363L435.21 67.0371L281.207 155.816L130.827 67.0371Z" fill="white"/>
<path fill-rule="evenodd" clip-rule="evenodd" d="M281.205 130.45L281.207 130.45L281.208 130.45C281.208 130.45 281.207 130.45 281.207 130.45C281.206 130.45 281.206 130.45 281.205 130.45ZM278.556 128.823L177.934 67.0371H388.103L283.866 128.873C283.584 127.326 283.25 124.959 283.337 123.299C283.434 121.428 283.65 121.384 284.088 121.296C284.252 121.263 284.449 121.224 284.682 121.078C285.363 120.652 286.072 119.805 286.341 119.435H286.072C285.698 119.716 284.861 120.296 284.502 120.367C284.144 120.438 283.785 120.397 283.65 120.367C284.159 120.027 285.265 119.266 285.623 118.946C285.982 118.626 286.401 118.25 286.565 118.102L285.623 118.502C285.145 118.813 284.018 119.435 283.337 119.435C282.655 119.435 282.365 119.287 282.305 119.213C282.664 119.198 283.606 118.999 284.502 118.324C285.399 117.649 286.251 117.214 286.565 117.081L285.265 117.258C285.16 117.377 284.789 117.685 284.144 117.969C283.498 118.253 282.649 118.324 282.305 118.324C283.112 118.176 284.834 117.685 285.265 116.903C285.803 115.926 296.34 109.886 304.277 115.793C302.752 113.024 297.676 108.536 289.569 112.728C288.687 113.172 286.538 114.451 284.996 116.015C284.757 116.237 284.153 116.761 283.65 117.081C283.148 117.401 282.305 117.214 281.947 117.081C282.694 117.125 284.404 116.796 285.265 115.127L287.013 113.572L285.803 113.972C285.668 113.972 285.516 113.812 285.982 113.172C286.565 112.373 296.206 106.244 306.608 108.909C307.326 109.234 309.048 110.294 310.196 111.929C310.016 109.723 307.855 105.347 300.645 105.489C293.435 105.631 287.387 110.374 285.265 112.728C285.369 112.195 285.866 110.881 287.013 109.886C288.448 108.642 301.811 99.0489 310.196 108.687C309.493 106.347 306.465 101.794 299.972 102.291C293.479 102.788 287.462 108.154 285.265 110.774C290.735 102.928 302.752 88.8871 307.057 95.4958C306.922 94.4447 306.33 92.1559 305.039 91.4097C303.425 90.4771 300.555 89.0558 296.34 93.8081C292.968 97.6099 286.804 106.111 284.144 109.886C289.465 100.603 301.344 83.7795 306.295 90.7435C306.235 88.4044 304.707 83.9216 299.075 84.7033C293.443 85.485 286.954 101.166 284.413 108.909C284.368 107.724 284.476 104.894 285.265 103.046C286.251 100.737 294.95 80.7505 302.976 83.815C301.228 81.7128 296.914 78.3699 293.65 81.8164C290.385 85.2629 285.683 99.0341 283.74 105.489C286.416 94.3706 293.569 72.987 300.779 76.398C300.107 75.1692 298.008 72.7383 294.995 72.8449C291.228 72.9781 286.341 79.0184 284.996 86.6575C283.92 92.7688 283.441 101.521 283.337 105.134C283.068 104.201 282.61 101.651 282.933 98.9156C282.975 98.5577 283.021 98.0442 283.079 97.4057L283.079 97.4055C283.57 91.9431 284.883 77.3384 291.587 72.8449C289.435 71.9862 284.691 72.0632 282.933 79.2404C281.14 86.5599 281.616 94.0568 281.852 97.7756C281.906 98.6149 281.947 99.2617 281.947 99.6707C281.947 101.447 281.648 103.016 281.498 103.579L281.207 105.022L280.915 103.579C280.766 103.016 280.467 101.447 280.467 99.6707C280.467 99.2617 280.508 98.6149 280.561 97.7756C280.797 94.0568 281.273 86.5599 279.48 79.2404C277.723 72.0632 272.979 71.9862 270.826 72.8449C277.531 77.3384 278.844 91.9431 279.335 97.4055L279.335 97.4057C279.392 98.0442 279.438 98.5577 279.48 98.9156C279.803 101.651 279.346 104.201 279.077 105.134C278.972 101.521 278.494 92.7688 277.418 86.6575C276.073 79.0184 271.185 72.9781 267.418 72.8449C264.405 72.7383 262.307 75.1692 261.634 76.398C268.844 72.987 275.998 94.3706 278.673 105.489C276.73 99.0341 272.028 85.2629 268.764 81.8164C265.499 78.3699 261.186 81.7128 259.437 83.815C267.463 80.7505 276.162 100.737 277.149 103.046C277.938 104.894 278.046 107.724 278.001 108.909C275.46 101.166 268.97 85.485 263.338 84.7033C257.706 83.9216 256.179 88.4044 256.119 90.7435C261.069 83.7795 272.949 100.603 278.27 109.886C275.609 106.111 269.445 97.6099 266.073 93.8081C261.858 89.0558 258.989 90.4771 257.374 91.4097C256.083 92.1559 255.491 94.4447 255.357 95.4958C259.661 88.8871 271.678 102.928 277.149 110.774C274.952 108.154 268.934 102.788 262.441 102.291C255.948 101.794 252.92 106.347 252.218 108.687C260.603 99.0489 273.965 108.642 275.4 109.886C276.548 110.881 277.044 112.195 277.149 112.728C275.026 110.374 268.979 105.631 261.769 105.489C254.558 105.347 252.397 109.723 252.218 111.929C253.366 110.294 255.088 109.234 255.805 108.909C266.208 106.244 275.848 112.373 276.431 113.172C276.898 113.812 276.745 113.972 276.611 113.972L275.4 113.572L277.149 115.127C278.01 116.796 279.72 117.125 280.467 117.081C280.108 117.214 279.265 117.401 278.763 117.081C278.261 116.761 277.657 116.237 277.418 116.015C275.875 114.451 273.726 113.172 272.844 112.728C264.737 108.536 259.661 113.024 258.137 115.793C266.073 109.886 276.611 115.926 277.149 116.903C277.579 117.685 279.301 118.176 280.108 118.324C279.764 118.324 278.915 118.253 278.27 117.969C277.624 117.685 277.253 117.377 277.149 117.258L275.848 117.081C276.162 117.214 277.014 117.649 277.911 118.324C278.808 118.999 279.749 119.198 280.108 119.213C280.048 119.287 279.758 119.435 279.077 119.435C278.395 119.435 277.268 118.813 276.79 118.502L275.848 118.102C276.013 118.25 276.431 118.626 276.79 118.946C277.149 119.266 278.255 120.027 278.763 120.367C278.628 120.397 278.27 120.438 277.911 120.367C277.552 120.296 276.715 119.716 276.342 119.435H276.073C276.342 119.805 277.05 120.652 277.732 121.078C277.965 121.224 278.161 121.263 278.326 121.296C278.763 121.384 278.979 121.428 279.077 123.299C279.163 124.941 278.836 127.276 278.556 128.823Z" fill="white"/>
<rect x="47.4834" y="19.9297" width="447.517" height="3.62362" fill="white"/>
</g>
<defs>
<filter id="filter0_d_29_316" x="0" y="0" width="499" height="171.968" filterUnits="userSpaceOnUse" color-interpolation-filters="sRGB">
<feFlood flood-opacity="0" result="BackgroundImageFix"/>
<feColorMatrix in="SourceAlpha" type="matrix" values="0 0 0 0 0 0 0 0 0 0 0 0 0 0 0 0 0 0 127 0" result="hardAlpha"/>
<feOffset dy="4"/>
<feGaussianBlur stdDeviation="2"/>
<feComposite in2="hardAlpha" operator="out"/>
<feColorMatrix type="matrix" values="0 0 0 0 0 0 0 0 0 0 0 0 0 0 0 0 0 0 0.25 0"/>
<feBlend mode="normal" in2="BackgroundImageFix" result="effect1_dropShadow_29_316"/>
<feBlend mode="normal" in="SourceGraphic" in2="effect1_dropShadow_29_316" result="shape"/>
</filter>
</defs>
</svg>
